<svg width="31" height="28" viewBox="0 0 31 28" fill="none" xmlns="http://www.w3.org/2000/svg">
<path d="M26.0066 21.96C26.5932 21.0267 26.9399 19.9467 26.9399 18.7733C26.9399 15.4533 24.2599 12.7733 20.9399 12.7733C17.6199 12.7733 14.9399 15.4533 14.9399 18.7733C14.9399 22.0933 17.6199 24.7733 20.9266 24.7733C22.0999 24.7733 23.1932 24.4267 24.1132 23.84L28.2733 28L30.1666 26.1067L26.0066 21.96ZM20.9399 22.1067C19.0999 22.1067 17.6066 20.6133 17.6066 18.7733C17.6066 16.9333 19.0999 15.44 20.9399 15.44C22.7799 15.44 24.2733 16.9333 24.2733 18.7733C24.2733 20.6133 22.7799 22.1067 20.9399 22.1067ZM20.4599 10.7733C19.4733 10.8 18.5266 11.0133 17.6599 11.3733L16.9266 10.2667L11.8599 18.5067L7.84659 13.8133L3.00659 21.56L0.833252 20L7.49992 9.33333L11.4999 14L16.8333 5.33333L20.4599 10.7733ZM23.9132 11.44C23.0599 11.0667 22.1399 10.84 21.1799 10.7867L28.0066 0L30.1666 1.57333L23.9132 11.44Z" fill="#F4F4F4"/>
</svg>
