<svg width="33" height="33" viewBox="0 0 33 33" fill="none" xmlns="http://www.w3.org/2000/svg">
<circle cx="16.5" cy="16.5" r="13.75" fill="#7E7E7E"/>
<path d="M4.68445 23.5366C6.35826 26.3407 9.00226 28.4987 12.1533 29.5477C12.8412 29.6735 13.0919 29.2489 13.0919 28.8843C13.0919 28.7333 13.0894 28.4665 13.086 28.1096C13.0821 27.6961 13.077 27.1617 13.0733 26.5461C9.24872 27.3767 8.44176 24.7026 8.44176 24.7026C7.81628 23.1148 6.91478 22.6919 6.91478 22.6919C5.66635 21.8385 7.00932 21.8554 7.00932 21.8554C8.38942 21.9533 9.11535 23.2727 9.11535 23.2727C10.3418 25.3736 12.3339 24.7667 13.1172 24.4156C13.2422 23.5267 13.5967 22.9207 13.99 22.5771C10.9369 22.2302 7.7268 21.0501 7.7268 15.7813C7.7268 14.2804 8.26281 13.0531 9.14236 12.0917C9.00055 11.7439 8.5287 10.3461 9.27657 8.45276C9.27657 8.45276 10.4313 8.08304 13.0582 9.86241C14.1546 9.55769 15.3313 9.40491 16.5004 9.39984C17.6678 9.40491 18.8445 9.55769 19.9426 9.86241C22.5678 8.08304 23.72 8.45276 23.72 8.45276C24.4704 10.3461 23.9986 11.7439 23.8567 12.0917C24.738 13.0531 25.2706 14.2804 25.2706 15.7813C25.2706 21.0636 22.0554 22.226 18.9922 22.5661C19.486 22.9907 19.9258 23.8298 19.9258 25.1128C19.9258 26.3418 19.9182 27.4121 19.9132 28.1212C19.9107 28.4724 19.9089 28.735 19.9089 28.8843C19.9089 29.2523 20.1562 29.6802 20.8543 29.546C23.3644 28.7081 25.5525 27.1669 27.1841 25.1559C24.6631 28.2637 20.8135 30.25 16.5 30.25C11.4775 30.25 7.08403 27.5572 4.68445 23.5366Z" fill="white"/>
</svg>
