<svg width="35" height="35" viewBox="0 0 35 35" fill="none" xmlns="http://www.w3.org/2000/svg">
<path d="M17.5 10.3266C19.8364 10.3266 20.1131 10.3356 21.0358 10.3777C21.8889 10.4166 22.3522 10.5591 22.6605 10.6789C23.069 10.8377 23.3604 11.0273 23.6666 11.3334C23.9728 11.6396 24.1624 11.9311 24.3212 12.3395C24.441 12.6479 24.5835 13.1112 24.6224 13.9643C24.6645 14.8869 24.6735 15.1637 24.6735 17.5C24.6735 19.8364 24.6645 20.1131 24.6224 21.0358C24.5835 21.8889 24.441 22.3522 24.3212 22.6605C24.1624 23.0689 23.9728 23.3604 23.6666 23.6666C23.3604 23.9728 23.069 24.1624 22.6605 24.3211C22.3522 24.441 21.8889 24.5835 21.0358 24.6224C20.1133 24.6645 19.8365 24.6734 17.5 24.6734C15.1635 24.6734 14.8868 24.6645 13.9643 24.6224C13.1112 24.5835 12.6479 24.441 12.3395 24.3211C11.9311 24.1624 11.6396 23.9728 11.3334 23.6666C11.0273 23.3604 10.8376 23.0689 10.6789 22.6605C10.5591 22.3522 10.4165 21.8889 10.3776 21.0358C10.3355 20.1131 10.3266 19.8364 10.3266 17.5C10.3266 15.1637 10.3355 14.8869 10.3776 13.9643C10.4165 13.1112 10.5591 12.6479 10.6789 12.3395C10.8376 11.9311 11.0272 11.6396 11.3334 11.3335C11.6396 11.0273 11.9311 10.8377 12.3395 10.6789C12.6479 10.5591 13.1112 10.4166 13.9643 10.3777C14.8869 10.3356 15.1637 10.3266 17.5 10.3266ZM17.5 8.75006C15.1237 8.75006 14.8257 8.76013 13.8924 8.80272C12.9611 8.84519 12.325 8.99312 11.7684 9.20941C11.1931 9.43302 10.7051 9.73221 10.2186 10.2186C9.73218 10.7051 9.43299 11.1931 9.20941 11.7685C8.99309 12.325 8.84516 12.9611 8.80269 13.8924C8.7601 14.8257 8.75003 15.1237 8.75003 17.5C8.75003 19.8764 8.7601 20.1744 8.80269 21.1076C8.84516 22.039 8.99309 22.675 9.20941 23.2316C9.43299 23.807 9.73218 24.2949 10.2186 24.7814C10.7051 25.2679 11.1931 25.567 11.7684 25.7906C12.325 26.0069 12.9611 26.1549 13.8924 26.1973C14.8257 26.2399 15.1237 26.25 17.5 26.25C19.8764 26.25 20.1744 26.2399 21.1076 26.1973C22.039 26.1549 22.675 26.0069 23.2316 25.7906C23.807 25.567 24.295 25.2679 24.7814 24.7814C25.2679 24.2949 25.5671 23.807 25.7907 23.2316C26.007 22.675 26.1549 22.039 26.1974 21.1076C26.24 20.1744 26.25 19.8764 26.25 17.5C26.25 15.1237 26.24 14.8257 26.1974 13.8924C26.1549 12.9611 26.007 12.325 25.7907 11.7685C25.5671 11.1931 25.2679 10.7051 24.7814 10.2186C24.295 9.73221 23.807 9.43302 23.2316 9.20941C22.675 8.99312 22.039 8.84519 21.1076 8.80272C20.1744 8.76013 19.8764 8.75006 17.5 8.75006Z" fill="white"/>
<path d="M17.5041 13.0109C15.0225 13.0109 13.0108 15.0225 13.0108 17.5041C13.0108 19.9856 15.0225 21.9973 17.5041 21.9973C19.9856 21.9973 21.9973 19.9856 21.9973 17.5041C21.9973 15.0225 19.9856 13.0109 17.5041 13.0109ZM17.5041 20.4207C15.8932 20.4207 14.5874 19.1149 14.5874 17.5041C14.5874 15.8933 15.8932 14.5874 17.5041 14.5874C19.1149 14.5874 20.4207 15.8933 20.4207 17.5041C20.4207 19.1149 19.1149 20.4207 17.5041 20.4207Z" fill="white"/>
<path d="M23.2245 12.8305C23.2245 13.4104 22.7544 13.8805 22.1745 13.8805C21.5947 13.8805 21.1245 13.4104 21.1245 12.8305C21.1245 12.2506 21.5947 11.7805 22.1745 11.7805C22.7544 11.7805 23.2245 12.2506 23.2245 12.8305Z" fill="white"/>
<rect x="0.5" y="0.5" width="34" height="34" rx="17" stroke="#F4F4F4"/>
</svg>
