<svg width="35" height="35" viewBox="0 0 35 35" fill="none" xmlns="http://www.w3.org/2000/svg">
<g clip-path="url(#clip0_1113_2396)">
<path d="M13.7852 12.7108C13.7852 13.1168 13.6592 13.4626 13.406 13.7468C13.1528 14.031 12.8264 14.1738 12.4256 14.1738C12.0428 14.1738 11.7284 14.031 11.4848 13.7468C11.2412 13.4626 11.1188 13.1168 11.1188 12.7108C11.12 12.2838 11.2424 11.9324 11.486 11.658C11.7296 11.3836 12.0524 11.2464 12.4532 11.2464C12.854 11.2464 13.172 11.3836 13.4072 11.658C13.6424 11.9324 13.7684 12.2838 13.7852 12.7108ZM11.198 24.7536V15.3316H13.7072V24.7522H11.198V24.7536ZM15.1964 18.35C15.1964 17.4764 15.1784 16.4698 15.1436 15.3316H17.3132L17.444 16.642H17.4968C18.02 15.6256 18.8468 15.1174 19.9796 15.1174C20.8508 15.1174 21.5516 15.4576 22.0832 16.1394C22.6148 16.8212 22.88 17.832 22.88 19.1732V24.7522H20.3708V19.54C20.3708 18.1778 19.9436 17.4974 19.0904 17.4974C18.4808 17.4974 18.0536 17.8628 17.81 18.595C17.7572 18.7168 17.732 18.9604 17.732 19.3272V24.7536H15.1964V18.35Z" fill="#F4F4F4"/>
</g>
<circle cx="17.5" cy="17.5" r="17" stroke="#F4F4F4"/>
<defs>
<clipPath id="clip0_1113_2396">
<rect width="12" height="14" fill="white" transform="translate(11 11)"/>
</clipPath>
</defs>
</svg>
