<svg width="33" height="33" viewBox="0 0 33 33" fill="none" xmlns="http://www.w3.org/2000/svg">
<circle cx="16.5" cy="16.5" r="13.75" fill="#0077B5"/>
<path fill-rule="evenodd" clip-rule="evenodd" d="M12.9076 9.82017C12.9076 10.6762 12.2559 11.3689 11.2366 11.3689C10.2571 11.3689 9.60528 10.6762 9.62546 9.82017C9.60528 8.92257 10.257 8.25 11.2561 8.25C12.2559 8.25 12.8881 8.92257 12.9076 9.82017ZM9.7074 22.5631V12.5924H12.8061V22.5625H9.7074V22.5631Z" fill="white"/>
<path fill-rule="evenodd" clip-rule="evenodd" d="M15.2898 15.7744C15.2898 14.5308 15.2489 13.4705 15.2079 12.5937H17.8994L18.0425 13.9597H18.1037C18.5115 13.3275 19.5308 12.37 21.1823 12.37C23.2208 12.37 24.75 13.7157 24.75 16.6506V22.5644H21.6512V17.0389C21.6512 15.7536 21.2031 14.8774 20.0817 14.8774C19.225 14.8774 18.7157 15.4687 18.5121 16.0392C18.4302 16.2434 18.3898 16.5283 18.3898 16.8145V22.5644H15.2911V15.7744H15.2898Z" fill="white"/>
</svg>
