<svg width="29" height="29" viewBox="0 0 29 29" fill="none" xmlns="http://www.w3.org/2000/svg">
<path d="M14.4862 0.75C6.89625 0.75 0.75 6.91 0.75 14.5C0.75 22.09 6.89625 28.25 14.4862 28.25C22.09 28.25 28.25 22.09 28.25 14.5C28.25 6.91 22.09 0.75 14.4862 0.75ZM24.015 9H19.9587C19.5188 7.28125 18.8862 5.63125 18.0613 4.105C20.5912 4.97125 22.695 6.73125 24.015 9ZM14.5 3.555C15.6412 5.205 16.535 7.03375 17.1262 9H11.8738C12.465 7.03375 13.3588 5.205 14.5 3.555ZM3.8575 17.25C3.6375 16.37 3.5 15.4487 3.5 14.5C3.5 13.5513 3.6375 12.63 3.8575 11.75H8.505C8.395 12.6575 8.3125 13.565 8.3125 14.5C8.3125 15.435 8.395 16.3425 8.505 17.25H3.8575ZM4.985 20H9.04125C9.48125 21.7188 10.1137 23.3687 10.9387 24.895C8.40875 24.0287 6.305 22.2825 4.985 20ZM9.04125 9H4.985C6.305 6.7175 8.40875 4.97125 10.9387 4.105C10.1137 5.63125 9.48125 7.28125 9.04125 9ZM14.5 25.445C13.3588 23.795 12.465 21.9662 11.8738 20H17.1262C16.535 21.9662 15.6412 23.795 14.5 25.445ZM17.7175 17.25H11.2825C11.1587 16.3425 11.0625 15.435 11.0625 14.5C11.0625 13.565 11.1587 12.6438 11.2825 11.75H17.7175C17.8412 12.6438 17.9375 13.565 17.9375 14.5C17.9375 15.435 17.8412 16.3425 17.7175 17.25ZM18.0613 24.895C18.8862 23.3687 19.5188 21.7188 19.9587 20H24.015C22.695 22.2687 20.5912 24.0287 18.0613 24.895ZM20.495 17.25C20.605 16.3425 20.6875 15.435 20.6875 14.5C20.6875 13.565 20.605 12.6575 20.495 11.75H25.1425C25.3625 12.63 25.5 13.5513 25.5 14.5C25.5 15.4487 25.3625 16.37 25.1425 17.25H20.495Z" fill="#7E7E7E"/>
</svg>
