<svg width="150" height="84" viewBox="0 0 150 84" fill="none" xmlns="http://www.w3.org/2000/svg">
<g filter="url(#filter0_d_50_3395)">
<rect x="20" y="16" width="110" height="35" rx="8" fill="#F4F4F4" shape-rendering="crispEdges"/>
<path d="M30.3842 27.3636L33.8387 37.1591H33.9751L37.4296 27.3636H38.9069L34.6342 39H33.1796L28.9069 27.3636H30.3842ZM40.8576 39V30.2727H42.1985V39H40.8576ZM41.5394 28.8182C41.278 28.8182 41.0527 28.7292 40.8633 28.5511C40.6777 28.3731 40.5849 28.1591 40.5849 27.9091C40.5849 27.6591 40.6777 27.4451 40.8633 27.267C41.0527 27.089 41.278 27 41.5394 27C41.8008 27 42.0243 27.089 42.2099 27.267C42.3993 27.4451 42.494 27.6591 42.494 27.9091C42.494 28.1591 42.3993 28.3731 42.2099 28.5511C42.0243 28.7292 41.8008 28.8182 41.5394 28.8182ZM48.6336 39.1818C47.7926 39.1818 47.0673 38.9962 46.4574 38.625C45.8514 38.25 45.3836 37.7273 45.054 37.0568C44.7283 36.3826 44.5654 35.5985 44.5654 34.7045C44.5654 33.8106 44.7283 33.0227 45.054 32.3409C45.3836 31.6553 45.8419 31.1212 46.429 30.7386C47.0199 30.3523 47.7093 30.1591 48.4972 30.1591C48.9517 30.1591 49.4006 30.2348 49.8438 30.3864C50.287 30.5379 50.6904 30.7841 51.054 31.125C51.4176 31.4621 51.7074 31.9091 51.9233 32.4659C52.1392 33.0227 52.2472 33.7083 52.2472 34.5227V35.0909H45.5199V33.9318H50.8836C50.8836 33.4394 50.7851 33 50.5881 32.6136C50.3949 32.2273 50.1184 31.9223 49.7586 31.6989C49.4025 31.4754 48.982 31.3636 48.4972 31.3636C47.9631 31.3636 47.501 31.4962 47.1108 31.7614C46.7245 32.0227 46.4271 32.3636 46.2188 32.7841C46.0104 33.2045 45.9063 33.6553 45.9063 34.1364V34.9091C45.9063 35.5682 46.0199 36.1269 46.2472 36.5852C46.4783 37.0398 46.7983 37.3864 47.2074 37.625C47.6165 37.8598 48.0919 37.9773 48.6336 37.9773C48.9858 37.9773 49.304 37.928 49.5881 37.8295C49.876 37.7273 50.1241 37.5758 50.3324 37.375C50.5408 37.1705 50.7017 36.9167 50.8154 36.6136L52.1108 36.9773C51.9745 37.4167 51.7453 37.803 51.4233 38.1364C51.1014 38.4659 50.7036 38.7235 50.2301 38.9091C49.7567 39.0909 49.2245 39.1818 48.6336 39.1818ZM56.5842 39L53.9251 30.2727H55.3342L57.2206 36.9545H57.3115L59.1751 30.2727H60.607L62.4479 36.9318H62.5388L64.4251 30.2727H65.8342L63.1751 39H61.857L59.9479 32.2955H59.8115L57.9024 39H56.5842ZM72.9288 39V27.3636H76.8606C77.7735 27.3636 78.5197 27.5284 79.0992 27.858C79.6826 28.1837 80.1144 28.625 80.3947 29.1818C80.675 29.7386 80.8151 30.3598 80.8151 31.0455C80.8151 31.7311 80.675 32.3542 80.3947 32.9148C80.1182 33.4754 79.6901 33.9223 79.1106 34.2557C78.5311 34.5852 77.7886 34.75 76.8833 34.75H74.0651V33.5H76.8379C77.4629 33.5 77.9648 33.392 78.3436 33.1761C78.7223 32.9602 78.997 32.6686 79.1674 32.3011C79.3417 31.9299 79.4288 31.5114 79.4288 31.0455C79.4288 30.5795 79.3417 30.1629 79.1674 29.7955C78.997 29.428 78.7204 29.1402 78.3379 28.9318C77.9553 28.7197 77.4477 28.6136 76.8151 28.6136H74.3379V39H72.9288ZM83.2232 39V30.2727H84.5187V31.5909H84.6096C84.7687 31.1591 85.0565 30.8087 85.4732 30.5398C85.8899 30.2708 86.3596 30.1364 86.8823 30.1364C86.9808 30.1364 87.1039 30.1383 87.2516 30.142C87.3993 30.1458 87.5111 30.1515 87.5868 30.1591V31.5227C87.5414 31.5114 87.4372 31.4943 87.2743 31.4716C87.1153 31.4451 86.9467 31.4318 86.7687 31.4318C86.3444 31.4318 85.9656 31.5208 85.6323 31.6989C85.3028 31.8731 85.0414 32.1155 84.8482 32.4261C84.6588 32.733 84.5641 33.0833 84.5641 33.4773V39H83.2232ZM92.7762 39.1818C91.9883 39.1818 91.297 38.9943 90.7023 38.6193C90.1114 38.2443 89.6493 37.7197 89.3159 37.0455C88.9864 36.3712 88.8216 35.5833 88.8216 34.6818C88.8216 33.7727 88.9864 32.9792 89.3159 32.3011C89.6493 31.6231 90.1114 31.0966 90.7023 30.7216C91.297 30.3466 91.9883 30.1591 92.7762 30.1591C93.564 30.1591 94.2534 30.3466 94.8444 30.7216C95.439 31.0966 95.9012 31.6231 96.2307 32.3011C96.564 32.9792 96.7307 33.7727 96.7307 34.6818C96.7307 35.5833 96.564 36.3712 96.2307 37.0455C95.9012 37.7197 95.439 38.2443 94.8444 38.6193C94.2534 38.9943 93.564 39.1818 92.7762 39.1818ZM92.7762 37.9773C93.3747 37.9773 93.8671 37.8239 94.2534 37.517C94.6398 37.2102 94.9258 36.8068 95.1114 36.3068C95.297 35.8068 95.3898 35.2652 95.3898 34.6818C95.3898 34.0985 95.297 33.5549 95.1114 33.0511C94.9258 32.5473 94.6398 32.1402 94.2534 31.8295C93.8671 31.5189 93.3747 31.3636 92.7762 31.3636C92.1777 31.3636 91.6853 31.5189 91.2989 31.8295C90.9125 32.1402 90.6265 32.5473 90.4409 33.0511C90.2553 33.5549 90.1625 34.0985 90.1625 34.6818C90.1625 35.2652 90.2553 35.8068 90.4409 36.3068C90.6265 36.8068 90.9125 37.2102 91.2989 37.517C91.6853 37.8239 92.1777 37.9773 92.7762 37.9773ZM102.984 30.2727V31.4091H98.2794V30.2727H102.984ZM99.6885 39V29.0682C99.6885 28.5682 99.8059 28.1515 100.041 27.8182C100.276 27.4848 100.581 27.2348 100.956 27.0682C101.331 26.9015 101.726 26.8182 102.143 26.8182C102.473 26.8182 102.742 26.8447 102.95 26.8977C103.158 26.9508 103.313 27 103.416 27.0455L103.029 28.2045C102.961 28.1818 102.867 28.1534 102.745 28.1193C102.628 28.0852 102.473 28.0682 102.279 28.0682C101.836 28.0682 101.516 28.1799 101.319 28.4034C101.126 28.6269 101.029 28.9545 101.029 29.3864V39H99.6885ZM105.183 39V30.2727H106.524V39H105.183ZM105.865 28.8182C105.604 28.8182 105.378 28.7292 105.189 28.5511C105.003 28.3731 104.91 28.1591 104.91 27.9091C104.91 27.6591 105.003 27.4451 105.189 27.267C105.378 27.089 105.604 27 105.865 27C106.126 27 106.35 27.089 106.535 27.267C106.725 27.4451 106.82 27.6591 106.82 27.9091C106.82 28.1591 106.725 28.3731 106.535 28.5511C106.35 28.7292 106.126 28.8182 105.865 28.8182ZM110.641 27.3636V39H109.3V27.3636H110.641ZM117.076 39.1818C116.235 39.1818 115.51 38.9962 114.9 38.625C114.294 38.25 113.826 37.7273 113.497 37.0568C113.171 36.3826 113.008 35.5985 113.008 34.7045C113.008 33.8106 113.171 33.0227 113.497 32.3409C113.826 31.6553 114.284 31.1212 114.872 30.7386C115.462 30.3523 116.152 30.1591 116.94 30.1591C117.394 30.1591 117.843 30.2348 118.286 30.3864C118.729 30.5379 119.133 30.7841 119.497 31.125C119.86 31.4621 120.15 31.9091 120.366 32.4659C120.582 33.0227 120.69 33.7083 120.69 34.5227V35.0909H113.962V33.9318H119.326C119.326 33.4394 119.228 33 119.031 32.6136C118.837 32.2273 118.561 31.9223 118.201 31.6989C117.845 31.4754 117.425 31.3636 116.94 31.3636C116.406 31.3636 115.943 31.4962 115.553 31.7614C115.167 32.0227 114.87 32.3636 114.661 32.7841C114.453 33.2045 114.349 33.6553 114.349 34.1364V34.9091C114.349 35.5682 114.462 36.1269 114.69 36.5852C114.921 37.0398 115.241 37.3864 115.65 37.625C116.059 37.8598 116.534 37.9773 117.076 37.9773C117.428 37.9773 117.747 37.928 118.031 37.8295C118.318 37.7273 118.567 37.5758 118.775 37.375C118.983 37.1705 119.144 36.9167 119.258 36.6136L120.553 36.9773C120.417 37.4167 120.188 37.803 119.866 38.1364C119.544 38.4659 119.146 38.7235 118.673 38.9091C118.199 39.0909 117.667 39.1818 117.076 39.1818Z" fill="#000E14"/>
<path d="M74.5 59.5L66.2728 44.5H82.7272L74.5 59.5Z" fill="#F4F4F4"/>
</g>
<defs>
<filter id="filter0_d_50_3395" x="0" y="0" width="150" height="83.5" filterUnits="userSpaceOnUse" color-interpolation-filters="sRGB">
<feFlood flood-opacity="0" result="BackgroundImageFix"/>
<feColorMatrix in="SourceAlpha" type="matrix" values="0 0 0 0 0 0 0 0 0 0 0 0 0 0 0 0 0 0 127 0" result="hardAlpha"/>
<feOffset dy="4"/>
<feGaussianBlur stdDeviation="10"/>
<feComposite in2="hardAlpha" operator="out"/>
<feColorMatrix type="matrix" values="0 0 0 0 0 0 0 0 0 0 0 0 0 0 0 0 0 0 0.3 0"/>
<feBlend mode="normal" in2="BackgroundImageFix" result="effect1_dropShadow_50_3395"/>
<feBlend mode="normal" in="SourceGraphic" in2="effect1_dropShadow_50_3395" result="shape"/>
</filter>
</defs>
</svg>
