<svg width="231" height="49" viewBox="0 0 231 49" fill="none" xmlns="http://www.w3.org/2000/svg">
<path fill-rule="evenodd" clip-rule="evenodd" d="M11.0884 7.47026C11.3679 8.11221 11.7546 8.69507 12.2242 9.16956C12.6954 9.67032 13.2723 10.0611 13.932 10.3434C14.5673 10.6193 15.2595 10.7605 16.0021 10.7605C16.7512 10.7605 17.4353 10.6193 18.0706 10.3434C18.706 10.0611 19.2828 9.67032 19.7849 9.16956C20.2545 8.69507 20.6347 8.11221 20.9142 7.47026C21.1872 6.82995 21.327 6.13054 21.327 5.38023C21.327 4.62992 21.1872 3.93048 20.9142 3.28854C20.6347 2.64822 20.2545 2.06374 19.7849 1.55806C19.2828 1.08357 18.706 0.697762 18.0706 0.415359C17.4353 0.139548 16.7512 -2.61455e-05 16.0021 -2.61455e-05C15.2595 -2.61455e-05 14.5673 0.139548 13.932 0.415359C13.2723 0.697762 12.6954 1.08357 12.2242 1.55806C11.7546 2.06374 11.3679 2.64822 11.0884 3.28854C10.791 3.93048 10.6513 4.62992 10.6513 5.38023C10.6513 6.13054 10.791 6.82995 11.0884 7.47026ZM0.412725 38.7486C0.692211 39.3906 1.07894 39.9734 1.57454 40.4479C2.04414 40.9486 2.62098 41.3394 3.25632 41.6218C3.89166 41.8976 4.58225 42.0388 5.32483 42.0388H26.7103C27.4529 42.0388 28.1435 41.8976 28.8048 41.6218C29.4385 41.3394 30.017 40.9486 30.4866 40.4479C30.9562 39.9734 31.3429 39.3906 31.6224 38.7486C31.8954 38.1067 32.0351 37.4089 32.0351 36.6586V24.78H7.45184V21.5489H32.0351V19.3997C32.0351 18.6494 31.8954 17.95 31.6224 17.3097C31.3429 16.6678 30.9562 16.0833 30.4866 15.5842C30.017 15.1097 29.4385 14.7173 28.8048 14.4414C28.1435 14.1607 27.4529 14.0195 26.7103 14.0195H5.32483C4.58225 14.0195 3.89166 14.1607 3.25632 14.4414C2.62098 14.7173 2.04414 15.1097 1.57454 15.5842C1.07894 16.0833 0.692211 16.6678 0.412725 17.3097C0.139741 17.95 0 18.6494 0 19.3997V31.2767H24.5264V34.5094H0V36.6586C0 37.4089 0.139741 38.1067 0.412725 38.7486V38.7486Z" fill="white"/>
<path fill-rule="evenodd" clip-rule="evenodd" d="M54.453 42.0388V32.1179H61.753V29.6645H54.453V23.7511H63.2023V21.2695H51.4937V42.0388H54.453Z" fill="white"/>
<path fill-rule="evenodd" clip-rule="evenodd" d="M70.0688 42.0388V26.9137H65.2439V28.8321C65.6585 28.8602 66.3116 28.95 67.1965 29.0661V42.0388H70.0688ZM69.0602 23.7792C69.3267 23.6631 69.5654 23.4836 69.8023 23.1544C70.0409 22.8517 70.1559 22.4945 70.1559 22.1354C70.1559 21.8961 70.0688 21.6004 69.9521 21.3311C69.8023 21.0302 69.5654 20.789 69.2727 20.5831C68.9732 20.4036 68.6457 20.3139 68.2921 20.3139C68.0273 20.3139 67.7347 20.3754 67.4612 20.4934C67.1704 20.6447 66.9039 20.8506 66.6931 21.1534C66.4893 21.4209 66.4005 21.7781 66.4005 22.1354C66.4005 22.3765 66.4614 22.6176 66.5503 22.8236C66.6391 23.0647 66.7819 23.2424 66.9578 23.3938C67.1425 23.5733 67.3463 23.6895 67.5501 23.7792C67.7887 23.869 68.0273 23.9306 68.2921 23.9306C68.5307 23.9306 68.7955 23.869 69.0602 23.7792Z" fill="white"/>
<path fill-rule="evenodd" clip-rule="evenodd" d="M77.9342 42.0388V33.2531C77.9342 32.6829 78.0492 32.0845 78.2878 31.4579C78.5543 30.805 78.9689 30.2629 79.5942 29.7877C80.2404 29.3407 80.9215 29.0996 81.6896 29.0996C82.6703 29.0996 83.3775 29.3689 83.8477 29.8775C84.3233 30.4143 84.5619 31.252 84.5619 32.3872V42.0388H87.4255V31.5477C87.4255 30.7715 87.2826 30.0288 87.0179 29.2509C86.7183 28.4748 86.2149 27.843 85.4798 27.3678C84.7117 26.8592 83.7589 26.618 82.5814 26.618C81.4858 26.618 80.54 26.824 79.737 27.278C78.941 27.7251 78.3227 28.3234 77.8733 29.038L77.8193 26.9137H75.0637V42.0388H77.9343H77.9342Z" fill="white"/>
<path fill-rule="evenodd" clip-rule="evenodd" d="M97.7196 42.1285C98.3119 41.9772 98.8431 41.7977 99.2856 41.5583C99.728 41.3242 100.089 41.055 100.381 40.754L100.442 42.0388H103.163V31.6374C103.163 30.7715 103.041 29.9936 102.802 29.3688C102.598 28.7423 102.245 28.2336 101.769 27.8148C101.299 27.3959 100.707 27.1002 99.9666 26.9137C99.2576 26.7077 98.4007 26.618 97.3939 26.618C96.8905 26.618 96.3592 26.6462 95.7949 26.7077C95.2375 26.7359 94.7602 26.7975 94.3788 26.8873C94.0182 26.9488 93.4347 27.1002 92.6317 27.3061V29.6645C93.2501 29.4304 93.9033 29.2509 94.5843 29.0661C95.2636 28.9218 96.0335 28.832 96.8295 28.832C97.4827 28.832 98.0749 28.9218 98.6654 29.0661C99.2315 29.2175 99.6391 29.485 99.9108 29.9038C100.203 30.3245 100.32 30.8947 100.32 31.6708V32.4751C100.292 32.4751 100.177 32.4751 100.028 32.4751C99.8777 32.5033 99.7279 32.5033 99.5503 32.5033C99.4074 32.5033 99.2315 32.5033 99.0817 32.5033C98.9319 32.5033 98.8431 32.5033 98.8152 32.5033C97.9251 32.5386 97.1553 32.5931 96.4481 32.6828C95.7409 32.806 95.0877 32.9838 94.5233 33.1915C93.5218 33.6103 92.7536 34.1806 92.2154 34.9233C91.712 35.673 91.4473 36.6287 91.4473 37.7621C91.4473 38.6016 91.5692 39.2897 91.8009 39.86C92.0726 40.4583 92.3931 40.9318 92.8076 41.289C93.2222 41.6463 93.7256 41.9226 94.2917 42.067C94.8491 42.2447 95.4413 42.3345 96.0596 42.3345C96.563 42.3345 97.1291 42.2447 97.7196 42.1285L97.7196 42.1285ZM95.5302 39.8599C95.1139 39.6804 94.8212 39.4059 94.6105 38.994C94.4067 38.6016 94.3178 38.1545 94.3178 37.6459C94.3178 37.0757 94.4067 36.6005 94.6105 36.2098C94.8212 35.8243 95.1139 35.5216 95.5302 35.2541C95.9447 35.013 96.4481 34.8687 97.0665 34.7437C97.6865 34.6557 98.4286 34.5994 99.2577 34.5994H100.32V38.6913C100.143 38.8691 99.9109 39.082 99.6113 39.2897C99.3186 39.5027 98.9041 39.6804 98.4007 39.8599C97.8973 40.0043 97.366 40.094 96.8627 40.094C96.3871 40.094 95.9447 40.0043 95.5302 39.8599Z" fill="white"/>
<path fill-rule="evenodd" clip-rule="evenodd" d="M109.738 42.0388V33.2531C109.738 32.6829 109.853 32.0845 110.092 31.4579C110.359 30.805 110.773 30.2629 111.398 29.7877C112.045 29.3407 112.726 29.0996 113.494 29.0996C114.474 29.0996 115.182 29.3689 115.652 29.8775C116.127 30.4143 116.366 31.252 116.366 32.3872V42.0388H119.23V31.5477C119.23 30.7715 119.087 30.0288 118.822 29.2509C118.522 28.4748 118.019 27.843 117.284 27.3678C116.516 26.8592 115.563 26.618 114.386 26.618C113.29 26.618 112.344 26.824 111.541 27.278C110.745 27.7251 110.127 28.3234 109.677 29.038L109.623 26.9137H106.868V42.0388H109.738H109.738Z" fill="white"/>
<path fill-rule="evenodd" clip-rule="evenodd" d="M134.822 42.0388V39.7702H126.215C126.63 39.1102 127.283 38.1827 128.168 37.0194C129.06 35.8508 129.739 34.9849 130.209 34.3865C131.543 32.7163 132.993 30.9493 134.529 29.1629V26.9137H123.289V29.1893H131.066C129.324 31.252 128.107 32.7445 127.372 33.7336C126.393 35.0131 125.508 36.2433 124.677 37.3784C123.881 38.4837 123.317 39.2898 122.989 39.7984V42.0388H134.822Z" fill="white"/>
<path fill-rule="evenodd" clip-rule="evenodd" d="M146.953 47.9578C147.784 47.7184 148.491 47.2978 149.056 46.7276C149.559 46.226 149.968 45.566 150.24 44.8163C150.505 44.0736 150.648 43.1461 150.648 42.0672V26.9139H147.899L147.838 28.2005C147.634 27.9946 147.368 27.7534 146.981 27.4842C146.627 27.2448 146.185 27.0389 145.621 26.8594C145.062 26.708 144.443 26.6183 143.729 26.6183C142.87 26.6183 142.074 26.7978 141.334 27.1269C140.592 27.4842 139.946 27.9945 139.381 28.6545C138.85 29.3409 138.408 30.1452 138.08 31.129C137.755 32.1181 137.605 33.2252 137.605 34.4765C137.605 35.8246 137.755 36.9862 138.054 37.9753C138.347 38.9309 138.761 39.7088 139.265 40.3336C139.796 40.9672 140.414 41.4142 141.156 41.7099C141.864 41.9774 142.666 42.1288 143.523 42.1288C144.497 42.1288 145.354 41.9493 146.035 41.592C146.715 41.2347 147.307 40.6909 147.81 39.9148V42.245C147.81 43.5649 147.457 44.5206 146.749 45.1471C146.068 45.8071 144.973 46.1028 143.463 46.1028C142.313 46.1028 141.128 45.9514 139.857 45.6276L139.414 47.8346C139.857 47.9243 140.449 48.0475 141.217 48.1919C141.987 48.3151 142.933 48.3784 144.055 48.3784C145.15 48.3784 146.096 48.2271 146.953 47.9578H146.953ZM142.491 39.3516C142.041 39.0489 141.688 38.6634 141.421 38.183C141.156 37.7078 140.98 37.1375 140.864 36.4776C140.775 35.851 140.714 35.1646 140.714 34.4765C140.714 33.6106 140.803 32.8679 141.006 32.1797C141.184 31.5197 141.456 30.9495 141.776 30.4761C142.102 30.0291 142.517 29.6648 142.959 29.4307C143.436 29.1896 143.966 29.0664 144.532 29.0664C144.94 29.0664 145.354 29.1279 145.77 29.2512C146.185 29.3409 146.539 29.5204 146.838 29.6982C147.131 29.9041 147.457 30.1734 147.784 30.5025V35.0467C147.784 35.763 147.66 36.4776 147.457 37.1991C147.253 37.9419 146.864 38.5402 146.3 39.0489C145.743 39.5293 145.061 39.7986 144.232 39.7986C143.523 39.7986 142.959 39.6473 142.491 39.3516Z" fill="white"/>
<path fill-rule="evenodd" clip-rule="evenodd" d="M158.317 42.0388V33.8515C158.317 33.3692 158.405 32.8958 158.581 32.3872C158.759 31.8786 159.024 31.4315 159.384 31.0109C159.738 30.592 160.18 30.2348 160.712 29.9672C161.243 29.698 161.868 29.5748 162.575 29.5748C163.053 29.5748 163.371 29.61 163.61 29.6645V26.9137C163.345 26.8592 162.964 26.8239 162.488 26.8239C162.011 26.8239 161.515 26.9137 160.976 27.1003C160.447 27.278 159.977 27.6019 159.473 28.0559C158.998 28.5294 158.581 29.0996 158.256 29.7877L158.202 26.9137H155.446V42.0388H158.317H158.317Z" fill="white"/>
<path fill-rule="evenodd" clip-rule="evenodd" d="M175.245 41.6815C176.041 41.2345 176.66 40.6643 177.102 39.9145L177.137 42.0388H179.914V26.9137H177.048V35.7346C177.048 36.2978 176.959 36.8416 176.749 37.3503C176.573 37.8519 176.306 38.3059 175.953 38.6632C175.599 39.0486 175.211 39.3513 174.742 39.5572C174.293 39.7984 173.796 39.8864 173.258 39.8864C172.286 39.8864 171.577 39.647 171.102 39.1384C170.659 38.6632 170.421 37.8518 170.421 36.7184V26.9137H167.55V37.3503C167.55 38.9941 167.965 40.2436 168.822 41.0831C169.652 41.9226 170.837 42.3345 172.373 42.3345C173.469 42.3345 174.415 42.1004 175.245 41.6815H175.245Z" fill="white"/>
<path fill-rule="evenodd" clip-rule="evenodd" d="M186.961 48.0754V41.1113C187.403 41.502 187.941 41.7713 188.56 42.0106C189.18 42.2183 189.887 42.3344 190.744 42.3344C191.785 42.3344 192.696 42.1549 193.527 41.7977C194.323 41.4404 195.003 40.9036 195.541 40.2172C196.072 39.5291 196.487 38.6913 196.779 37.6741C197.044 36.6902 197.194 35.5551 197.194 34.2703C197.194 33.0471 197.018 31.8152 196.69 30.6201C196.365 29.4304 195.745 28.4396 194.827 27.725C193.914 26.9753 192.757 26.618 191.369 26.618C190.744 26.618 190.159 26.7078 189.566 26.8873C189.002 27.065 188.471 27.3677 187.995 27.7532C187.525 28.172 187.171 28.6191 186.9 29.1277L186.846 26.9137H184.09V48.0754H186.961H186.961ZM188.41 39.5907C187.879 39.3513 187.403 38.994 186.961 38.5734V34.6892C186.961 33.8778 187.049 33.1017 187.199 32.4135C187.375 31.7272 187.614 31.1288 187.906 30.6536C188.206 30.145 188.587 29.7542 189.063 29.485C189.505 29.2175 190.009 29.0661 190.601 29.0661C191.247 29.0661 191.839 29.2509 192.404 29.5747C192.968 29.9038 193.378 30.4758 193.677 31.3065C193.97 32.1179 194.118 33.1351 194.118 34.3319C194.118 34.8951 194.092 35.4037 194.003 35.9141C193.942 36.4227 193.853 36.8962 193.703 37.3502C193.588 37.7357 193.411 38.1545 193.146 38.54C192.907 38.9588 192.519 39.2897 191.989 39.5572C191.458 39.8599 190.866 39.9761 190.159 39.9761C189.505 39.9761 188.913 39.8599 188.41 39.5907Z" fill="white"/>
<path fill-rule="evenodd" clip-rule="evenodd" d="M203.863 48.0754V41.1113C204.305 41.502 204.843 41.7713 205.462 42.0106C206.082 42.2183 206.789 42.3344 207.646 42.3344C208.687 42.3344 209.598 42.1549 210.429 41.7977C211.225 41.4404 211.905 40.9036 212.443 40.2172C212.974 39.5291 213.389 38.6913 213.681 37.6741C213.946 36.6902 214.096 35.5551 214.096 34.2703C214.096 33.0471 213.92 31.8152 213.592 30.6201C213.267 29.4304 212.647 28.4396 211.729 27.725C210.816 26.9753 209.659 26.618 208.271 26.618C207.646 26.618 207.061 26.7078 206.468 26.8873C205.904 27.065 205.373 27.3677 204.897 27.7532C204.427 28.172 204.073 28.6191 203.802 29.1277L203.748 26.9137H200.992V48.0754H203.862H203.863ZM205.312 39.5907C204.78 39.3513 204.305 38.994 203.863 38.5734V34.6892C203.863 33.8778 203.951 33.1017 204.101 32.4135C204.277 31.7272 204.516 31.1288 204.808 30.6536C205.108 30.145 205.489 29.7542 205.965 29.485C206.407 29.2175 206.911 29.0661 207.503 29.0661C208.149 29.0661 208.741 29.2509 209.306 29.5747C209.87 29.9038 210.279 30.4758 210.579 31.3065C210.872 32.1179 211.02 33.1351 211.02 34.3319C211.02 34.8951 210.994 35.4037 210.905 35.9141C210.844 36.4227 210.755 36.8962 210.605 37.3502C210.49 37.7357 210.313 38.1545 210.048 38.54C209.809 38.9588 209.421 39.2897 208.891 39.5572C208.36 39.8599 207.768 39.9761 207.061 39.9761C206.407 39.9761 205.815 39.8599 205.312 39.5907Z" fill="white"/>
<path fill-rule="evenodd" clip-rule="evenodd" d="M227.405 42.2801C228.145 42.1551 228.826 42.039 229.446 41.833L228.88 39.619C228.412 39.7352 227.873 39.8601 227.227 39.9499C226.609 40.066 225.956 40.0942 225.303 40.0942C223.853 40.0942 222.791 39.6806 222.049 38.8693C221.308 38.065 220.899 36.8964 220.777 35.3775H230.329C230.364 34.8689 230.392 34.2705 230.392 33.6105C230.392 31.3419 229.887 29.6101 228.88 28.3781C227.847 27.155 226.37 26.5566 224.357 26.5566C223.294 26.5566 222.348 26.7361 221.519 27.1268C220.688 27.5122 220.009 28.0561 219.45 28.7706C218.886 29.4588 218.443 30.2965 218.178 31.2803C217.879 32.2694 217.729 33.343 217.729 34.5116C217.729 35.6996 217.879 36.8066 218.205 37.7623C218.532 38.7531 219.001 39.5909 219.593 40.279C220.22 40.9671 220.955 41.4687 221.845 41.8594C222.73 42.2185 223.737 42.3962 224.886 42.3962C225.839 42.3962 226.696 42.3698 227.405 42.2801H227.405ZM221.723 29.904C222.315 29.0997 223.172 28.6809 224.296 28.6809C225.363 28.6809 226.132 29.0381 226.635 29.6981C227.105 30.3863 227.377 31.3419 227.377 32.5932V33.2796H220.716C220.812 31.8506 221.131 30.7154 221.723 29.904Z" fill="white"/>
</svg>
