<svg width="223" height="42" viewBox="0 0 223 42" fill="none" xmlns="http://www.w3.org/2000/svg">
<path d="M16.0946 41.6218C13.6944 41.6218 11.5239 41.2362 9.58132 40.465C7.63875 39.6938 5.96861 38.6089 4.56847 37.2088C3.16914 35.8103 2.09802 34.1603 1.35591 32.2606C0.612996 30.3609 0.241943 28.2971 0.241943 26.0691C0.241943 23.8412 0.634015 21.7919 1.41977 19.9213C2.20472 18.0507 3.32678 16.4153 4.7835 15.0152C6.24023 13.6158 7.95968 12.5302 9.94671 11.7589C11.9313 10.9877 14.0946 10.6021 16.4373 10.6021C18.0937 10.6021 19.6571 10.8164 21.1292 11.2448C22.5997 11.6733 23.9344 12.2593 25.1348 13.0014C26.3345 13.7452 27.3474 14.6013 28.176 15.5721L23.763 20.2422C23.0492 19.5567 22.3135 18.986 21.5569 18.5284C20.7994 18.0725 19.9926 17.7079 19.1365 17.4363C18.2788 17.1647 17.3645 17.0289 16.3937 17.0289C15.1366 17.0289 13.9879 17.2576 12.945 17.7144C11.9014 18.1719 10.9887 18.8073 10.203 19.6214C9.41722 20.4354 8.81011 21.3926 8.38247 22.492C7.95402 23.5914 7.7398 24.7838 7.7398 26.0691C7.7398 27.3545 7.96776 28.5541 8.42532 29.6681C8.88125 30.7821 9.51018 31.7465 10.3105 32.5605C11.1092 33.3746 12.0599 34.0173 13.1593 34.4886C14.2587 34.9599 15.4373 35.1951 16.6936 35.1951C17.5788 35.1951 18.4146 35.0528 19.2004 34.7666C19.9853 34.4813 20.6636 34.0957 21.2351 33.6098C21.8067 33.1248 22.2642 32.546 22.607 31.875C22.9489 31.2041 23.1203 30.4822 23.1203 29.7109V28.597L24.0629 30.0537H15.7946V24.3553H29.8898C29.9472 24.6698 29.99 25.0991 30.0191 25.6407C30.0474 26.1839 30.0685 26.7118 30.083 27.2259C30.0967 27.7401 30.1048 28.1257 30.1048 28.3828C30.1048 30.3253 29.754 32.1038 29.0547 33.7174C28.3547 35.3309 27.3765 36.7238 26.1194 37.8943C24.8632 39.0657 23.3782 39.98 21.6644 40.6364C19.9506 41.2936 18.0937 41.6218 16.0946 41.6218Z" fill="white"/>
<path d="M36.2312 35.4524L38.5028 29.9682H52.298L54.5268 35.4524H36.2312ZM30.5757 41.1936L42.4445 11.2022H48.6134L60.3965 41.1936H53.0264L47.3709 25.9837C47.1421 25.3838 46.9141 24.7412 46.6862 24.0557C46.4566 23.3701 46.2286 22.6636 45.9998 21.9344C45.7711 21.2061 45.5504 20.4931 45.3361 19.7922C45.1219 19.0929 44.9425 18.443 44.801 17.8431L46.0855 17.8003C45.915 18.5149 45.7218 19.2142 45.5075 19.8997C45.2933 20.5852 45.0791 21.2643 44.8649 21.9344C44.6506 22.6062 44.4146 23.278 44.1583 23.9489C43.9004 24.6199 43.6579 25.3127 43.4291 26.0265L37.7736 41.1936H30.5757Z" fill="white"/>
<path d="M73.2057 41.6218C71.2348 41.6218 69.4564 41.3858 67.8711 40.9145C66.2858 40.4432 64.8792 39.7585 63.6521 38.8587C62.4233 37.959 61.3231 36.8951 60.353 35.6664L64.7661 30.6535C66.1929 32.5678 67.6294 33.8532 69.0716 34.5096C70.5137 35.1676 72.0068 35.495 73.5484 35.495C74.3196 35.495 75.0197 35.3956 75.6478 35.1951C76.276 34.9954 76.7618 34.7028 77.1046 34.3172C77.4473 33.9316 77.6187 33.4538 77.6187 32.8815C77.6187 32.453 77.512 32.0674 77.2978 31.7247C77.0835 31.3819 76.7901 31.082 76.4199 30.8249C76.048 30.5678 75.6058 30.3326 75.0909 30.1184C74.5767 29.9042 74.0335 29.7182 73.4628 29.5614C72.8912 29.4046 72.3067 29.2688 71.7069 29.154C70.0497 28.7837 68.6075 28.3262 67.3788 27.7829C66.15 27.2405 65.1298 26.5768 64.3158 25.791C63.5017 25.0053 62.8946 24.1064 62.4945 23.0918C62.0943 22.0781 61.8946 20.9423 61.8946 19.6852C61.8946 18.3433 62.2018 17.1081 62.8154 15.9796C63.4298 14.851 64.2584 13.8802 65.3012 13.0661C66.3432 12.2521 67.5502 11.6239 68.9212 11.1809C70.2922 10.7379 71.7207 10.5164 73.2057 10.5164C75.1765 10.5164 76.8693 10.7242 78.2832 11.1381C79.6963 11.552 80.9105 12.1445 81.925 12.9158C82.9387 13.687 83.8021 14.6158 84.5167 15.7007L80.0188 20.028C79.419 19.2859 78.7682 18.6715 78.069 18.1857C77.3681 17.7006 76.626 17.3288 75.841 17.0717C75.0545 16.8146 74.2485 16.6861 73.4207 16.6861C72.563 16.6861 71.8274 16.7936 71.2138 17.0078C70.5986 17.2221 70.1217 17.522 69.7789 17.9076C69.4353 18.2932 69.264 18.7572 69.264 19.2996C69.264 19.7855 69.407 20.1994 69.6924 20.5421C69.9778 20.8849 70.3634 21.1929 70.8492 21.4629C71.3351 21.7353 71.892 21.9633 72.5202 22.1492C73.1483 22.3352 73.8055 22.4855 74.491 22.5987C76.0617 22.9132 77.4829 23.3271 78.7545 23.8412C80.0253 24.3553 81.1247 24.9843 82.0527 25.7264C82.9816 26.4693 83.6962 27.348 84.1958 28.3617C84.6954 29.3763 84.9452 30.5541 84.9452 31.896C84.9452 33.9817 84.4383 35.7456 83.4246 37.1878C82.4101 38.63 81.0253 39.7302 79.2686 40.4868C77.512 41.2435 75.491 41.6218 73.2057 41.6218Z" fill="white"/>
<path d="M97.97 41.1936L85.9734 11.2022H93.5569L99.341 26.4978C99.6838 27.3838 99.9756 28.155 100.219 28.8114C100.461 29.4687 100.676 30.0822 100.862 30.6538C101.048 31.2253 101.219 31.8041 101.377 32.3886C101.533 32.9747 101.711 33.6392 101.912 34.3813H100.583C100.812 33.4104 101.04 32.5462 101.269 31.7896C101.497 31.0329 101.755 30.2463 102.04 29.4331C102.326 28.6182 102.683 27.6401 103.111 26.4978L108.681 11.2022H116.136L104.054 41.1936H97.97Z" fill="white"/>
<path d="M121.684 11.1841H129.715V41.1941H121.684V11.1841Z" fill="white"/>
<path d="M147.758 41.6218C145.787 41.6218 144.009 41.3858 142.424 40.9145C140.838 40.4432 139.432 39.7585 138.205 38.8587C136.976 37.959 135.876 36.8951 134.906 35.6664L139.319 30.6535C140.745 32.5678 142.182 33.8532 143.624 34.5096C145.066 35.1676 146.559 35.495 148.101 35.495C148.872 35.495 149.572 35.3956 150.2 35.1951C150.828 34.9954 151.314 34.7028 151.657 34.3172C152 33.9316 152.171 33.4538 152.171 32.8815C152.171 32.453 152.064 32.0674 151.85 31.7247C151.636 31.3819 151.343 31.082 150.972 30.8249C150.6 30.5678 150.158 30.3326 149.643 30.1184C149.129 29.9042 148.586 29.7182 148.015 29.5614C147.444 29.4046 146.859 29.2688 146.259 29.154C144.602 28.7837 143.16 28.3262 141.931 27.7829C140.703 27.2405 139.682 26.5768 138.868 25.791C138.054 25.0053 137.447 24.1064 137.047 23.0918C136.647 22.0781 136.447 20.9423 136.447 19.6852C136.447 18.3433 136.754 17.1081 137.368 15.9796C137.982 14.851 138.811 13.8802 139.854 13.0661C140.896 12.2521 142.103 11.6239 143.474 11.1809C144.845 10.7379 146.273 10.5164 147.758 10.5164C149.729 10.5164 151.422 10.7242 152.836 11.1381C154.249 11.552 155.463 12.1445 156.478 12.9158C157.491 13.687 158.355 14.6158 159.069 15.7007L154.571 20.028C153.971 19.2859 153.321 18.6715 152.621 18.1857C151.921 17.7006 151.178 17.3288 150.394 17.0717C149.607 16.8146 148.801 16.6861 147.973 16.6861C147.116 16.6861 146.38 16.7936 145.766 17.0078C145.151 17.2221 144.674 17.522 144.331 17.9076C143.988 18.2932 143.816 18.7572 143.816 19.2996C143.816 19.7855 143.96 20.1994 144.245 20.5421C144.53 20.8849 144.916 21.1929 145.402 21.4629C145.888 21.7353 146.445 21.9633 147.073 22.1492C147.701 22.3352 148.358 22.4855 149.044 22.5987C150.614 22.9132 152.035 23.3271 153.307 23.8412C154.578 24.3553 155.677 24.9843 156.605 25.7264C157.534 26.4693 158.249 27.348 158.748 28.3617C159.248 29.3763 159.498 30.5541 159.498 31.896C159.498 33.9817 158.991 35.7456 157.977 37.1878C156.963 38.63 155.578 39.7302 153.821 40.4868C152.064 41.2435 150.044 41.6218 147.758 41.6218Z" fill="white"/>
<path d="M177.749 34.7666C178.92 34.7666 179.998 34.5524 180.984 34.124C181.969 33.6955 182.826 33.0892 183.555 32.3035C184.283 31.5177 184.847 30.597 185.246 29.5396C185.646 28.4838 185.847 27.3262 185.847 26.0691C185.847 24.8129 185.646 23.6561 185.246 22.5987C184.847 21.5429 184.283 20.6214 183.555 19.8356C182.826 19.0499 181.969 18.4427 180.984 18.0143C179.998 17.5858 178.92 17.3716 177.749 17.3716C176.578 17.3716 175.499 17.5858 174.514 18.0143C173.529 18.4427 172.664 19.0499 171.922 19.8356C171.179 20.6214 170.615 21.5429 170.23 22.5987C169.844 23.6561 169.651 24.8129 169.651 26.0691C169.651 27.3262 169.844 28.4903 170.23 29.5614C170.615 30.6325 171.179 31.5533 171.922 32.3245C172.664 33.0957 173.529 33.6955 174.514 34.124C175.499 34.5524 176.578 34.7666 177.749 34.7666ZM177.792 41.6218C175.507 41.6218 173.421 41.2362 171.536 40.465C169.651 39.6938 168.008 38.6089 166.61 37.2088C165.209 35.8103 164.125 34.1668 163.353 32.2816C162.581 30.3965 162.197 28.3262 162.197 26.0691C162.197 23.8129 162.581 21.7418 163.353 19.8566C164.125 17.9715 165.209 16.3296 166.61 14.9295C168.008 13.5301 169.651 12.4445 171.536 11.6733C173.421 10.9021 175.492 10.5164 177.749 10.5164C180.005 10.5164 182.077 10.9021 183.962 11.6733C185.847 12.4445 187.489 13.5301 188.889 14.9295C190.288 16.3296 191.367 17.9715 192.124 19.8566C192.881 21.7418 193.26 23.8129 193.26 26.0691C193.26 28.2971 192.881 30.3609 192.124 32.2606C191.367 34.1603 190.288 35.8103 188.889 37.2088C187.489 38.6089 185.847 39.6938 183.962 40.465C182.077 41.2362 180.02 41.6218 177.792 41.6218Z" fill="white"/>
<path d="M214.681 41.1936L207.054 27.6546L214.509 26.5835L222.993 41.1936H214.681ZM204.998 25.0839H210.911C211.653 25.0839 212.303 24.9198 212.86 24.5908C213.417 24.2634 213.846 23.7986 214.146 23.1988C214.446 22.5989 214.596 21.9134 214.596 21.1422C214.596 20.371 214.425 19.6927 214.082 19.1075C213.738 18.5222 213.246 18.0719 212.603 17.7575C211.961 17.4438 211.182 17.2862 210.268 17.2862H204.998V25.0839ZM198.058 41.1936V11.2022H211.554C213.467 11.2022 215.202 11.6169 216.759 12.4447C218.315 13.2733 219.537 14.4091 220.423 15.8505C221.307 17.2934 221.75 18.9288 221.75 20.7566C221.75 22.6418 221.307 24.3345 220.423 25.8341C219.537 27.3329 218.323 28.5115 216.781 29.3684C215.238 30.2253 213.496 30.6538 211.554 30.6538H204.998V41.1936H198.058Z" fill="white"/>
<path d="M130.118 0.756064H121.251C120.551 0.756064 119.984 1.32356 119.984 2.02282C119.984 2.72208 120.551 3.28957 121.251 3.28957H124.418V5.90796H126.951V3.28957H130.118C130.818 3.28957 131.385 2.72208 131.385 2.02282C131.385 1.32356 130.818 0.756064 130.118 0.756064Z" fill="white"/>
<path d="M127.796 7.17426H123.574C122.525 7.17426 121.673 8.0263 121.673 9.07479V9.70776H129.697V9.07479C129.697 8.0263 128.844 7.17426 127.796 7.17426Z" fill="white"/>
</svg>
