<svg width="110" height="37" viewBox="0 0 110 37" fill="none" xmlns="http://www.w3.org/2000/svg">
<path fill-rule="evenodd" clip-rule="evenodd" d="M93.2228 4.28436C93.2228 1.92859 95.1093 0.0429688 97.4677 0.0429688C99.8245 0.0429688 101.711 1.92859 101.711 4.28436C101.711 6.59481 99.8245 8.52732 97.4677 8.52732C95.109 8.52732 93.2228 6.59481 93.2228 4.28436ZM8.05543 16.7757V4.28437H0.60498V35.7703H8.05575V26.4848L11.2614 22.9496L20.5041 35.7703H29.1342L16.0716 17.766L28.52 4.28437H19.4192L8.05543 16.7757ZM46.0071 20.2638V21.1591C36.9535 21.8183 30.4926 23.7505 30.4923 29.454C30.4923 33.6966 34.1241 36.3353 38.5566 36.3353C41.9042 36.3353 44.6395 35.3934 46.3836 32.9423L47.2324 35.7698H53.8826C53.4106 33.7435 53.0807 29.6897 53.0807 26.6262V21.4882C53.0807 14.4178 49.355 11.7322 42.7064 11.7322C37.3301 11.7322 33.5575 14.088 32.0022 17.1999L38.0381 19.3669C38.5085 17.4829 40.1122 16.5863 42.0937 16.5863C44.5926 16.5863 46.0071 17.5769 46.0071 20.2638ZM37.896 28.9357C37.896 30.4447 39.3105 31.4337 41.1967 31.4337C44.027 31.4337 46.148 30.2559 46.148 25.966V25.4005C41.197 25.8253 37.896 26.4846 37.896 28.9357ZM57.7907 12.3919V35.7699H64.9581V23.9864C64.9581 20.2636 66.8446 18.7546 70.3329 18.7546C70.994 18.7546 71.5128 18.8015 72.2662 18.8969V11.7326C68.6825 11.5438 66.1837 12.9105 64.7223 16.6818L63.4485 12.3919H57.7907ZM101.154 21.1591V20.2638C101.154 17.5769 99.7394 16.5863 97.2406 16.5863C95.2591 16.5863 93.6553 17.4829 93.185 19.3669L87.149 17.1999C88.7043 14.088 92.4769 11.7322 97.8533 11.7322C104.502 11.7322 108.228 14.4178 108.228 21.4882V26.6262C108.228 29.6897 108.557 33.7435 109.029 35.7698H102.379L101.53 32.9423C99.7863 35.3934 97.0511 36.3353 93.7035 36.3353C89.271 36.3353 85.6391 33.6966 85.6391 29.454C85.6391 23.7505 92.1001 21.8183 101.154 21.1591ZM96.3429 31.4337C94.4568 31.4337 93.0423 30.4447 93.0423 28.9357C93.0423 26.4846 96.3432 25.8253 101.294 25.4005V25.966C101.294 30.2559 99.1732 31.4337 96.3429 31.4337ZM82.4954 4.28437V35.7703H75.3279V4.28437H82.4954Z" fill="white"/>
</svg>
