<svg width="28" height="28" viewBox="0 0 28 28" fill="none" xmlns="http://www.w3.org/2000/svg">
<path d="M20 15.0002C24.12 11.2535 28 7.74683 28 4.7335C28 2.26683 26.0667 0.333496 23.6 0.333496C22.2133 0.333496 20.8667 0.986829 20 2.00016C19.12 0.986829 17.7867 0.333496 16.4 0.333496C13.9333 0.333496 12 2.26683 12 4.7335C12 7.74683 15.88 11.2535 20 15.0002ZM16.4 3.00016C16.9867 3.00016 17.5867 3.28016 17.9733 3.7335L20 6.12016L22.0267 3.7335C22.4133 3.28016 23.0133 3.00016 23.6 3.00016C24.5867 3.00016 25.3333 3.74683 25.3333 4.7335C25.3333 6.22683 22.6133 8.96016 20 11.3868C17.3867 8.96016 14.6667 6.2135 14.6667 4.7335C14.6667 3.74683 15.4133 3.00016 16.4 3.00016Z" fill="#F4F4F4"/>
<path d="M24 19.0002H21.3333C21.3333 17.4002 20.3333 15.9602 18.84 15.4002L10.6267 12.3335H0V27.0002H8V25.0802L17.3333 27.6668L28 24.3335V23.0002C28 20.7868 26.2133 19.0002 24 19.0002ZM2.66667 24.3335V15.0002H5.33333V24.3335H2.66667ZM17.2933 24.8802L8 22.3068V15.0002H10.1467L17.9067 17.8935C18.36 18.0668 18.6667 18.5068 18.6667 19.0002C18.6667 19.0002 16.0133 18.9335 15.6 18.8002L12.4267 17.7468L11.5867 20.2802L14.76 21.3335C15.44 21.5602 16.1467 21.6802 16.8667 21.6802H24C24.52 21.6802 24.9867 21.9868 25.2 22.4268L17.2933 24.8802Z" fill="#F4F4F4"/>
</svg>

