<svg width="25" height="25" viewBox="0 0 25 25" fill="none" xmlns="http://www.w3.org/2000/svg">
<path d="M21.2366 15.2767L22.6666 13.8467L21.2366 12.4167L17.6666 15.9867L9.09663 7.41666L12.6666 3.84666L11.2366 2.41666L9.80663 3.84666L8.37663 2.41666L6.23663 4.55666L4.80663 3.12666L3.37663 4.55666L4.80663 5.98666L2.66663 8.12666L4.09663 9.55666L2.66663 10.9867L4.09663 12.4167L7.66663 8.84666L16.2366 17.4167L12.6666 20.9867L14.0966 22.4167L15.5266 20.9867L16.9566 22.4167L19.0966 20.2767L20.5266 21.7067L21.9566 20.2767L20.5266 18.8467L22.6666 16.7067L21.2366 15.2767Z" fill="#200E38"/>
</svg>
