<svg width="44" height="39" viewBox="0 0 44 39" fill="none" xmlns="http://www.w3.org/2000/svg">
<path fill-rule="evenodd" clip-rule="evenodd" d="M25.542 26.7206C26.5466 25.7105 27.1674 24.3183 27.1674 22.7811C27.1674 19.6957 24.6661 17.1944 21.5806 17.1944C18.4951 17.1944 15.9938 19.6957 15.9938 22.7811C15.9938 24.2524 16.5625 25.5908 17.4921 26.5886L16.0177 28.0551C14.7145 26.681 13.915 24.8244 13.915 22.7811C13.915 18.5476 17.347 15.1156 21.5806 15.1156C25.8142 15.1156 29.2462 18.5476 29.2462 22.7811C29.2462 24.8904 28.3943 26.8006 27.0159 28.1866L25.542 26.7206Z" fill="#F4F4F4"/>
<path fill-rule="evenodd" clip-rule="evenodd" d="M28.9337 29.8359C30.7328 28.027 31.8446 25.5339 31.8446 22.7812C31.8446 17.256 27.3655 12.7769 21.8404 12.7769C16.3152 12.7769 11.8361 17.256 11.8361 22.7812C11.8361 25.468 12.8953 27.9074 14.6189 29.7047L13.1448 31.1709C11.0475 28.9976 9.75732 26.04 9.75732 22.7812C9.75732 16.1079 15.1671 10.6981 21.8404 10.6981C28.5136 10.6981 33.9234 16.1079 33.9234 22.7812C33.9234 26.1059 32.5805 29.1171 30.4076 31.3018L28.9337 29.8359Z" fill="#F4F4F4"/>
<path fill-rule="evenodd" clip-rule="evenodd" d="M32.4343 33.3175C35.1213 30.616 36.7819 26.8925 36.7819 22.7811C36.7819 14.5292 30.0924 7.83976 21.8405 7.83976C13.5886 7.83976 6.89911 14.5292 6.89911 22.7811C6.89911 26.8266 8.50685 30.4965 11.1182 33.1868L9.64427 34.6529C6.65905 31.5866 4.82031 27.3986 4.82031 22.7811C4.82031 13.3812 12.4405 5.76096 21.8405 5.76096C31.2405 5.76096 38.8607 13.3812 38.8607 22.7811C38.8607 27.4645 36.9691 31.7061 33.9082 34.7835L32.4343 33.3175Z" fill="#F4F4F4"/>
<path fill-rule="evenodd" clip-rule="evenodd" d="M35.9723 36.578C39.5241 33.0072 41.7191 28.0856 41.7191 22.6512C41.7191 11.7443 32.8773 2.90259 21.9705 2.90259C11.0636 2.90259 2.22187 11.7443 2.22187 22.6512C2.22187 28.0856 4.41687 33.0072 7.96864 36.578L6.49477 38.044C2.56912 34.0973 0.143066 28.6576 0.143066 22.6512C0.143066 10.5963 9.91553 0.823792 21.9705 0.823792C34.0254 0.823792 43.7979 10.5963 43.7979 22.6512C43.7979 28.6576 41.3718 34.0974 37.4462 38.044L35.9723 36.578Z" fill="#F4F4F4"/>
</svg>
