<svg width="24" height="25" viewBox="0 0 24 25" fill="none" xmlns="http://www.w3.org/2000/svg">
<path d="M6.00037 15.4996C5.17037 15.4996 4.42037 15.8396 3.88037 16.3796C2.70037 17.5596 2.00037 22.4996 2.00037 22.4996C2.00037 22.4996 6.94037 21.7996 8.12037 20.6196C8.66037 20.0796 9.00037 19.3296 9.00037 18.4996C9.00037 16.8396 7.66037 15.4996 6.00037 15.4996ZM6.71037 19.2096C6.43037 19.4896 4.54037 19.9696 4.54037 19.9696C4.54037 19.9696 5.01037 18.0896 5.30037 17.7996C5.47037 17.6096 5.72037 17.4996 6.00037 17.4996C6.55037 17.4996 7.00037 17.9496 7.00037 18.4996C7.00037 18.7796 6.89037 19.0296 6.71037 19.2096ZM17.4204 14.1496C23.7804 7.7896 21.6604 2.8396 21.6604 2.8396C21.6604 2.8396 16.7104 0.719597 10.3504 7.0796L7.86037 6.5796C7.21037 6.4496 6.53037 6.6596 6.05037 7.1296L2.00037 11.1896L7.00037 13.3296L11.1704 17.4996L13.3104 22.4996L17.3604 18.4496C17.8304 17.9796 18.0404 17.2996 17.9104 16.6396L17.4204 14.1496ZM7.41037 11.3296L5.50037 10.5096L7.47037 8.5396L8.91037 8.8296C8.34037 9.6596 7.83037 10.5296 7.41037 11.3296ZM13.9904 18.9996L13.1704 17.0896C13.9704 16.6696 14.8404 16.1596 15.6604 15.5896L15.9504 17.0296L13.9904 18.9996ZM16.0004 12.7396C14.6804 14.0596 12.6204 15.1396 11.9604 15.4696L9.03037 12.5396C9.35037 11.8896 10.4304 9.8296 11.7604 8.4996C16.4404 3.8196 19.9904 4.5096 19.9904 4.5096C19.9904 4.5096 20.6804 8.0596 16.0004 12.7396ZM15.0004 11.4996C16.1004 11.4996 17.0004 10.5996 17.0004 9.4996C17.0004 8.3996 16.1004 7.4996 15.0004 7.4996C13.9004 7.4996 13.0004 8.3996 13.0004 9.4996C13.0004 10.5996 13.9004 11.4996 15.0004 11.4996Z" fill="#200E38"/>
</svg>
