<svg width="25" height="25" viewBox="0 0 25 25" fill="none" xmlns="http://www.w3.org/2000/svg">
<path d="M16.8333 13.1667C19.9233 10.3567 22.8333 7.72666 22.8333 5.46666C22.8333 3.61666 21.3833 2.16666 19.5333 2.16666C18.4933 2.16666 17.4833 2.65666 16.8333 3.41666C16.1733 2.65666 15.1733 2.16666 14.1333 2.16666C12.2833 2.16666 10.8333 3.61666 10.8333 5.46666C10.8333 7.72666 13.7433 10.3567 16.8333 13.1667ZM14.1333 4.16666C14.5733 4.16666 15.0233 4.37666 15.3133 4.71666L16.8333 6.50666L18.3533 4.71666C18.6433 4.37666 19.0933 4.16666 19.5333 4.16666C20.2733 4.16666 20.8333 4.72666 20.8333 5.46666C20.8333 6.58666 18.7933 8.63666 16.8333 10.4567C14.8733 8.63666 12.8333 6.57666 12.8333 5.46666C12.8333 4.72666 13.3933 4.16666 14.1333 4.16666Z" fill="#200E38"/>
<path d="M19.8333 16.1667H17.8333C17.8333 14.9667 17.0833 13.8867 15.9633 13.4667L9.80331 11.1667H1.83331V22.1667H7.83331V20.7267L14.8333 22.6667L22.8333 20.1667V19.1667C22.8333 17.5067 21.4933 16.1667 19.8333 16.1667ZM3.83331 20.1667V13.1667H5.83331V20.1667H3.83331ZM14.8033 20.5767L7.83331 18.6467V13.1667H9.44331L15.2633 15.3367C15.6033 15.4667 15.8333 15.7967 15.8333 16.1667C15.8333 16.1667 13.8433 16.1167 13.5333 16.0167L11.1533 15.2267L10.5233 17.1267L12.9033 17.9167C13.4133 18.0867 13.9433 18.1767 14.4833 18.1767H19.8333C20.2233 18.1767 20.5733 18.4067 20.7333 18.7367L14.8033 20.5767Z" fill="#200E38"/>
</svg>
