<svg width="24" height="25" viewBox="0 0 24 25" fill="none" xmlns="http://www.w3.org/2000/svg">
<path d="M10.2501 3.16666H4.25012V5.16666H10.2501V3.16666Z" fill="#200E38"/>
<path d="M6.25012 7.16666H1.25012V9.16666H6.25012V7.16666Z" fill="#200E38"/>
<path d="M8.25012 19.1667H3.25012V21.1667H8.25012V19.1667Z" fill="#200E38"/>
<path d="M22.4601 18.7767L20.1801 14.6767C19.9101 14.1967 19.4501 13.8467 18.9201 13.7067L16.2301 13.0367C16.2101 12.5667 16.0901 12.1167 15.8601 11.7067L19.8201 5.11666C20.4701 4.03666 20.1201 2.63666 19.0401 1.98666C18.6801 1.76666 18.2701 1.66666 17.8701 1.66666C17.3101 1.66666 16.7501 1.87666 16.3101 2.28666L12.8801 5.49666C12.4801 5.86666 12.2501 6.39666 12.2501 6.94666V10.3467C11.7801 10.5167 11.3601 10.7967 11.0201 11.1667H3.53012C2.27012 11.1667 1.25012 12.1867 1.25012 13.4467C1.25012 14.4667 1.92012 15.3567 2.90012 15.6367L7.41012 16.9267C7.59012 16.9767 7.78012 17.0067 7.96012 17.0067C8.32012 17.0067 8.68012 16.9067 8.99012 16.7167L11.2301 15.3767C11.5201 15.6367 11.8601 15.8467 12.2501 15.9867V21.1667C11.1501 21.1667 10.2501 22.0667 10.2501 23.1667H16.2501C16.2501 22.0667 15.3501 21.1667 14.2501 21.1667V16.8867L18.8601 21.4967C19.3101 21.9467 19.8901 22.1667 20.4701 22.1667C21.0501 22.1667 21.6401 21.9467 22.0801 21.4967C22.8001 20.7767 22.9601 19.6667 22.4601 18.7767ZM7.97012 15.0067L3.45012 13.7167C3.33012 13.6867 3.25012 13.5667 3.25012 13.4467C3.25012 13.2967 3.38012 13.1667 3.53012 13.1667H10.2601C10.2601 13.3167 10.2701 13.4667 10.2901 13.6067L7.97012 15.0067ZM13.2501 14.1667C12.7001 14.1667 12.2501 13.7167 12.2501 13.1667C12.2501 12.6167 12.7001 12.1667 13.2501 12.1667C13.8001 12.1667 14.2501 12.6167 14.2501 13.1667C14.2501 13.7167 13.8001 14.1667 13.2501 14.1667ZM14.2501 10.3067V6.94666L17.6801 3.73666C17.7301 3.68666 17.8701 3.61666 18.0201 3.69666C18.1501 3.77666 18.2001 3.94666 18.1201 4.07666L14.3801 10.3167L14.2501 10.3067ZM20.6701 20.0867C20.6201 20.1367 20.4301 20.2467 20.2701 20.0867L15.4201 15.2367C15.5001 15.1467 15.5801 15.0567 15.6601 14.9567L18.4401 15.6467L20.7201 19.7467C20.7801 19.8567 20.7601 19.9967 20.6701 20.0867Z" fill="#200E38"/>
</svg>
