<svg width="60" height="60" viewBox="0 0 60 60" fill="none" xmlns="http://www.w3.org/2000/svg">
<path d="M16.47 14.544C17.166 13.662 17.934 12.846 18.774 12.114L14.616 7.95C13.962 7.296 12.9 7.296 12.246 7.95C11.592 8.604 11.592 9.666 12.246 10.314L16.47 14.544Z" fill="white"/>
<path d="M30 7.854C30.018 7.854 30.03 7.854 30.048 7.854C30.6 7.854 31.14 7.89 31.674 7.944V2.274C31.674 1.35 30.924 0.599998 30 0.599998C29.076 0.599998 28.326 1.35 28.326 2.274V7.944C28.86 7.89 29.4 7.854 29.952 7.854C29.97 7.854 29.988 7.854 30 7.854Z" fill="white"/>
<path d="M43.536 14.544L47.754 10.32C48.408 9.666 48.408 8.604 47.754 7.956C47.1 7.302 46.038 7.302 45.384 7.956L41.226 12.12C42.066 12.852 42.834 13.668 43.536 14.544Z" fill="white"/>
<path d="M12.354 26.418C12.354 25.608 12.42 24.816 12.51 24.036H6.55797C5.63397 24.036 4.88397 24.786 4.88397 25.71C4.88397 26.634 5.63397 27.384 6.55797 27.384H12.372C12.36 27.066 12.354 26.748 12.354 26.418Z" fill="white"/>
<path d="M53.4359 24.036H47.4839C47.5799 24.816 47.6399 25.608 47.6399 26.418C47.6399 26.748 47.6339 27.066 47.6219 27.384H53.4299C54.3539 27.384 55.1039 26.634 55.1039 25.71C55.1039 24.786 54.3599 24.036 53.4359 24.036Z" fill="white"/>
<path d="M44.418 37.758C43.74 38.754 43.02 39.618 42.324 40.398L45.39 43.464C46.044 44.118 47.106 44.118 47.76 43.464C48.414 42.81 48.414 41.748 47.76 41.094L44.418 37.758Z" fill="white"/>
<path d="M12.246 41.094C11.592 41.748 11.592 42.81 12.246 43.464C12.9 44.118 13.962 44.118 14.616 43.464L17.682 40.398C16.992 39.618 16.272 38.754 15.588 37.758L12.246 41.094Z" fill="white"/>
<path d="M45.324 26.418C45.324 22.944 44.172 19.734 42.222 17.166C40.512 14.91 38.19 13.134 35.502 12.096L35.514 12.024L34.368 11.688C33.474 11.43 32.556 11.25 31.62 11.154L31.488 11.142H31.482H31.476C31.014 11.1 30.54 11.064 30.036 11.064H29.964C29.466 11.064 28.986 11.1 28.524 11.142H28.518L28.38 11.154C27.444 11.25 26.52 11.43 25.632 11.688L24.522 12.012L24.534 12.084C21.834 13.122 19.494 14.898 17.778 17.166C15.834 19.74 14.676 22.95 14.676 26.418C14.676 28.908 15.108 30.954 15.774 32.646C16.782 35.184 18.312 36.9 19.548 38.202C20.166 38.85 20.706 39.402 21.078 39.876C21.456 40.35 21.636 40.722 21.69 41.01C21.96 42.432 21.984 44.226 21.984 44.682V44.814C21.984 46.872 23.652 48.528 25.704 48.534H34.302C36.36 48.534 38.022 46.866 38.022 44.814V44.688C38.022 44.238 38.052 42.438 38.316 41.016C38.352 40.818 38.442 40.59 38.61 40.314C38.904 39.834 39.462 39.234 40.152 38.514C41.184 37.428 42.492 36.066 43.536 34.122C44.58 32.19 45.33 29.688 45.324 26.418ZM41.814 31.692C40.992 33.762 39.762 35.166 38.568 36.42C37.974 37.05 37.392 37.632 36.882 38.28C36.378 38.916 35.934 39.648 35.76 40.542C35.436 42.288 35.424 44.16 35.418 44.694C35.418 44.766 35.418 44.802 35.418 44.82C35.418 45.438 34.914 45.942 34.296 45.942H25.704C25.386 45.942 25.116 45.816 24.906 45.612C24.702 45.402 24.582 45.132 24.582 44.82C24.582 44.802 24.582 44.76 24.582 44.688C24.582 44.148 24.564 42.282 24.24 40.536C24.132 39.948 23.886 39.414 23.598 38.946C23.082 38.124 22.416 37.446 21.732 36.726C20.7 35.652 19.608 34.488 18.756 32.904C17.91 31.32 17.28 29.298 17.274 26.418C17.274 23.526 18.228 20.874 19.848 18.732C21.468 16.596 23.742 14.982 26.376 14.196L26.7 14.1C27.336 13.938 27.984 13.806 28.656 13.734H28.662L28.788 13.722C29.184 13.686 29.562 13.662 29.94 13.656L30.006 13.662L30.072 13.656C30.444 13.656 30.828 13.68 31.224 13.716H31.218L31.344 13.728C32.016 13.8 32.664 13.926 33.294 14.094L33.624 14.19C36.252 14.976 38.532 16.59 40.152 18.726C41.766 20.868 42.726 23.52 42.726 26.412C42.726 28.614 42.36 30.312 41.814 31.692Z" fill="white"/>
<path d="M34.266 49.554H25.74C24.858 49.554 24.144 50.268 24.144 51.156C24.144 52.032 24.864 52.752 25.74 52.752H34.266C35.148 52.752 35.862 52.032 35.862 51.156C35.862 50.268 35.148 49.554 34.266 49.554Z" fill="white"/>
<path d="M34.266 53.592H25.74C24.858 53.592 24.144 54.306 24.144 55.188C24.144 56.076 24.864 56.79 25.74 56.79H34.266C35.148 56.79 35.862 56.076 35.862 55.188C35.862 54.306 35.148 53.592 34.266 53.592Z" fill="white"/>
<path d="M30.7499 57.654H26.3579C26.3579 57.702 26.3459 57.75 26.3459 57.798C26.3459 58.68 27.7019 59.394 28.9559 59.394H31.0379C32.2919 59.394 33.6479 58.68 33.6479 57.798C33.6479 57.75 33.6419 57.702 33.6419 57.654H30.7499Z" fill="white"/>
</svg>
