<svg width="60" height="60" viewBox="0 0 60 60" fill="none" xmlns="http://www.w3.org/2000/svg">
<path d="M48.474 16.164C48.474 16.098 48.474 16.038 48.474 15.972C48.474 7.49401 41.574 0.600006 33.102 0.600006C25.086 0.600006 18.486 6.76201 17.79 14.598C16.38 14.034 14.868 13.746 13.326 13.746C6.64802 13.746 1.21802 19.176 1.21802 25.854C1.21802 32.532 6.64802 37.962 13.32 37.962L21.252 37.998V57.942C21.252 58.746 21.9 59.394 22.704 59.394C23.508 59.394 24.156 58.746 24.156 57.942V38.016L29.76 38.046V57.948C29.76 58.752 30.408 59.4 31.212 59.4C32.016 59.4 32.664 58.752 32.664 57.948V38.058L35.322 38.07C36.132 38.07 36.78 37.428 36.78 36.624C36.786 35.82 36.138 35.166 35.334 35.166L32.664 35.154V20.604C34.764 19.98 36.294 18.03 36.294 15.732C36.294 12.93 34.014 10.644 31.206 10.644C28.404 10.644 26.118 12.924 26.118 15.732C26.118 18.03 27.654 19.98 29.748 20.604V35.136L24.144 35.106V33C24.144 32.616 23.988 32.244 23.718 31.974L19.926 28.182C20.01 27.81 20.058 27.426 20.058 27.03C20.058 24.228 17.778 21.942 14.97 21.942C12.162 21.942 9.88202 24.222 9.88202 27.03C9.88202 29.838 12.162 32.118 14.97 32.118C16.29 32.118 17.496 31.608 18.402 30.78L21.228 33.606V35.1L13.302 35.064C8.22602 35.064 4.09802 30.936 4.09802 25.86C4.09802 20.784 8.22602 16.656 13.302 16.656C15.126 16.656 16.89 17.19 18.402 18.198C18.864 18.504 19.458 18.522 19.938 18.246C20.418 17.964 20.694 17.436 20.658 16.884L20.652 16.794C20.628 16.506 20.61 16.23 20.61 15.972C20.61 9.09601 26.202 3.50401 33.078 3.50401C39.954 3.50401 45.546 9.09601 45.546 15.972C45.546 16.422 45.516 16.908 45.45 17.466C45.396 17.904 45.546 18.336 45.852 18.654C46.158 18.966 46.59 19.128 47.028 19.086C47.316 19.062 47.55 19.05 47.772 19.05C52.23 19.05 55.86 22.68 55.86 27.138C55.86 31.596 52.23 35.226 47.778 35.226L45.198 35.214H45.192C44.394 35.214 43.746 35.862 43.74 36.66C43.734 37.464 44.382 38.118 45.186 38.118L47.778 38.13C53.838 38.13 58.776 33.198 58.776 27.132C58.782 21.306 54.216 16.518 48.474 16.164ZM29.034 15.732C29.034 14.532 30.012 13.554 31.212 13.554C32.412 13.554 33.39 14.532 33.39 15.732C33.39 16.932 32.412 17.91 31.212 17.91C30.012 17.916 29.034 16.938 29.034 15.732ZM14.988 29.214C13.788 29.214 12.81 28.236 12.81 27.036C12.81 25.836 13.788 24.858 14.988 24.858C16.188 24.858 17.166 25.836 17.166 27.036C17.166 28.236 16.188 29.214 14.988 29.214Z" fill="#F4F4F4"/>
<path d="M46.758 32.118C49.56 32.118 51.846 29.838 51.846 27.03C51.846 24.222 49.566 21.942 46.758 21.942C43.95 21.942 41.67 24.222 41.67 27.03C41.67 27.66 41.784 28.26 41.994 28.818L38.838 31.98C38.568 32.25 38.412 32.622 38.412 33.006V57.948C38.412 58.752 39.06 59.4 39.864 59.4C40.668 59.4 41.316 58.752 41.316 57.948V33.606L43.776 31.146C44.616 31.758 45.642 32.118 46.758 32.118ZM46.758 24.852C47.958 24.852 48.936 25.83 48.936 27.03C48.936 28.23 47.958 29.208 46.758 29.208C45.558 29.208 44.58 28.23 44.58 27.03C44.58 25.83 45.552 24.852 46.758 24.852Z" fill="#F4F4F4"/>
</svg>
