<svg width="60" height="60" viewBox="0 0 60 60" fill="none" xmlns="http://www.w3.org/2000/svg">
<g clip-path="url(#clip0_1184_2541)">
<path d="M55.728 18.978H44.7V4.27801C44.7 2.24401 43.056 0.600006 41.022 0.600006H18.978C16.944 0.600006 15.3 2.24401 15.3 4.27801V9.79201H4.27798C2.24398 9.79201 0.599976 11.436 0.599976 13.47V55.734C0.599976 57.768 2.24398 59.412 4.27798 59.412H55.728C57.762 59.412 59.406 57.768 59.406 55.734V22.65C59.4 20.616 57.756 18.978 55.728 18.978ZM15.3 57.564H4.27798C3.26398 57.564 2.44198 56.742 2.44198 55.728V13.464C2.44198 12.45 3.26398 11.628 4.27798 11.628H15.3V57.564ZM32.754 57.564H27.24V50.214H32.754V57.564ZM42.864 57.564H34.596V49.296C34.596 48.786 34.188 48.378 33.678 48.378H26.328C25.818 48.378 25.41 48.786 25.41 49.296V57.564H17.136V4.27801C17.136 3.26401 17.958 2.44201 18.972 2.44201H41.022C42.036 2.44201 42.858 3.26401 42.858 4.27801V57.564H42.864ZM57.564 55.728C57.564 56.742 56.742 57.564 55.728 57.564H44.7V20.814H55.728C56.742 20.814 57.564 21.636 57.564 22.65V55.728Z" fill="#F4F4F4"/>
<path d="M7.03195 22.65H10.71C11.22 22.65 11.628 22.242 11.628 21.732V18.054C11.628 17.544 11.22 17.136 10.71 17.136H7.03195C6.52195 17.136 6.11395 17.544 6.11395 18.054V21.732C6.11395 22.242 6.52195 22.65 7.03195 22.65ZM7.94995 18.978H9.78595V20.814H7.94995V18.978Z" fill="#F4F4F4"/>
<path d="M7.03195 31.836H10.71C11.22 31.836 11.628 31.428 11.628 30.918V27.24C11.628 26.73 11.22 26.322 10.71 26.322H7.03195C6.52195 26.322 6.11395 26.73 6.11395 27.24V30.918C6.11395 31.428 6.52195 31.836 7.03195 31.836ZM7.94995 28.164H9.78595V30H7.94995V28.164Z" fill="#F4F4F4"/>
<path d="M7.03195 41.028H10.71C11.22 41.028 11.628 40.62 11.628 40.11V36.432C11.628 35.922 11.22 35.514 10.71 35.514H7.03195C6.52195 35.514 6.11395 35.922 6.11395 36.432V40.11C6.11395 40.614 6.52195 41.028 7.03195 41.028ZM7.94995 37.35H9.78595V39.186H7.94995V37.35Z" fill="#F4F4F4"/>
<path d="M27.246 17.136H23.568C23.058 17.136 22.65 17.544 22.65 18.054V21.732C22.65 22.242 23.058 22.65 23.568 22.65H27.246C27.756 22.65 28.164 22.242 28.164 21.732V18.054C28.164 17.55 27.75 17.136 27.246 17.136ZM26.328 20.814H24.492V18.978H26.328V20.814Z" fill="#F4F4F4"/>
<path d="M27.246 26.328H23.568C23.058 26.328 22.65 26.736 22.65 27.246V30.924C22.65 31.434 23.058 31.842 23.568 31.842H27.246C27.756 31.842 28.164 31.434 28.164 30.924V27.246C28.164 26.736 27.75 26.328 27.246 26.328ZM26.328 30H24.492V28.164H26.328V30Z" fill="#F4F4F4"/>
<path d="M27.246 35.514H23.568C23.058 35.514 22.65 35.922 22.65 36.432V40.11C22.65 40.62 23.058 41.028 23.568 41.028H27.246C27.756 41.028 28.164 40.62 28.164 40.11V36.432C28.164 35.922 27.75 35.514 27.246 35.514ZM26.328 39.186H24.492V37.35H26.328V39.186Z" fill="#F4F4F4"/>
<path d="M36.432 17.136H32.754C32.244 17.136 31.836 17.544 31.836 18.054V21.732C31.836 22.242 32.244 22.65 32.754 22.65H36.432C36.942 22.65 37.35 22.242 37.35 21.732V18.054C37.35 17.55 36.942 17.136 36.432 17.136ZM35.514 20.814H33.678V18.978H35.514V20.814Z" fill="#F4F4F4"/>
<path d="M27.246 7.95001H23.568C23.058 7.95001 22.65 8.35801 22.65 8.86801V12.546C22.65 13.056 23.058 13.464 23.568 13.464H27.246C27.756 13.464 28.164 13.056 28.164 12.546V8.86801C28.164 8.35801 27.75 7.95001 27.246 7.95001ZM26.328 11.628H24.492V9.79201H26.328V11.628Z" fill="#F4F4F4"/>
<path d="M36.432 7.95001H32.754C32.244 7.95001 31.836 8.35801 31.836 8.86801V12.546C31.836 13.056 32.244 13.464 32.754 13.464H36.432C36.942 13.464 37.35 13.056 37.35 12.546V8.86801C37.35 8.35801 36.942 7.95001 36.432 7.95001ZM35.514 11.628H33.678V9.79201H35.514V11.628Z" fill="#F4F4F4"/>
<path d="M36.432 26.328H32.754C32.244 26.328 31.836 26.736 31.836 27.246V30.924C31.836 31.434 32.244 31.842 32.754 31.842H36.432C36.942 31.842 37.35 31.434 37.35 30.924V27.246C37.35 26.736 36.942 26.328 36.432 26.328ZM35.514 30H33.678V28.164H35.514V30Z" fill="#F4F4F4"/>
<path d="M36.432 35.514H32.754C32.244 35.514 31.836 35.922 31.836 36.432V40.11C31.836 40.62 32.244 41.028 32.754 41.028H36.432C36.942 41.028 37.35 40.62 37.35 40.11V36.432C37.35 35.922 36.942 35.514 36.432 35.514ZM35.514 39.186H33.678V37.35H35.514V39.186Z" fill="#F4F4F4"/>
<path d="M52.9679 26.328H49.2899C48.7799 26.328 48.3719 26.736 48.3719 27.246V30.924C48.3719 31.434 48.7799 31.842 49.2899 31.842H52.9679C53.4779 31.842 53.8859 31.434 53.8859 30.924V27.246C53.8859 26.736 53.4779 26.328 52.9679 26.328ZM52.0499 30H50.2139V28.164H52.0499V30Z" fill="#F4F4F4"/>
<path d="M52.9679 35.514H49.2899C48.7799 35.514 48.3719 35.922 48.3719 36.432V40.11C48.3719 40.62 48.7799 41.028 49.2899 41.028H52.9679C53.4779 41.028 53.8859 40.62 53.8859 40.11V36.432C53.8859 35.922 53.4779 35.514 52.9679 35.514ZM52.0499 39.186H50.2139V37.35H52.0499V39.186Z" fill="#F4F4F4"/>
<path d="M52.9679 44.7H49.2899C48.7799 44.7 48.3719 45.108 48.3719 45.618V49.296C48.3719 49.806 48.7799 50.214 49.2899 50.214H52.9679C53.4779 50.214 53.8859 49.806 53.8859 49.296V45.618C53.8859 45.108 53.4779 44.7 52.9679 44.7ZM52.0499 48.378H50.2139V46.542H52.0499V48.378Z" fill="#F4F4F4"/>
<path d="M7.03195 50.214H10.71C11.22 50.214 11.628 49.806 11.628 49.296V45.618C11.628 45.108 11.22 44.7 10.71 44.7H7.03195C6.52195 44.7 6.11395 45.108 6.11395 45.618V49.296C6.11395 49.8 6.52195 50.214 7.03195 50.214ZM7.94995 46.536H9.78595V48.372H7.94995V46.536Z" fill="#F4F4F4"/>
</g>
<defs>
<clipPath id="clip0_1184_2541">
<rect width="60" height="60" fill="white"/>
</clipPath>
</defs>
</svg>
