<svg width="28" height="28" viewBox="0 0 28 28" fill="none" xmlns="http://www.w3.org/2000/svg">
<path d="M14.6801 11.4457C14.6801 9.24569 12.8801 7.44569 10.6801 7.44569C8.48008 7.44569 6.68008 9.24569 6.68008 11.4457C6.68008 13.6457 8.48008 15.4457 10.6801 15.4457C12.8801 15.4457 14.6801 13.6457 14.6801 11.4457ZM10.6801 12.779C9.94675 12.779 9.34675 12.179 9.34675 11.4457C9.34675 10.7124 9.94675 10.1124 10.6801 10.1124C11.4134 10.1124 12.0134 10.7124 12.0134 11.4457C12.0134 12.179 11.4134 12.779 10.6801 12.779ZM19.3467 15.4457C20.8267 15.4457 22.0134 14.259 22.0134 12.779C22.0134 11.299 20.8267 10.1124 19.3467 10.1124C17.8667 10.1124 16.6667 11.299 16.6801 12.779C16.6801 14.259 17.8667 15.4457 19.3467 15.4457ZM14.0001 0.792358C6.64008 0.792358 0.666748 6.76569 0.666748 14.1257C0.666748 21.4857 6.64008 27.459 14.0001 27.459C21.3601 27.459 27.3334 21.4857 27.3334 14.1257C27.3334 6.76569 21.3601 0.792358 14.0001 0.792358ZM5.80008 20.939C6.70675 20.219 8.82675 19.459 10.6801 19.459C10.7734 19.459 10.8801 19.4724 10.9867 19.4724C11.3067 18.619 11.8801 17.7524 12.7201 16.9924C11.9734 16.859 11.2667 16.779 10.6801 16.779C8.94675 16.779 6.16008 17.379 4.37341 18.6857C3.70675 17.299 3.33341 15.7524 3.33341 14.1124C3.33341 8.23236 8.12008 3.44569 14.0001 3.44569C19.8801 3.44569 24.6667 8.23236 24.6667 14.1124C24.6667 15.7124 24.3067 17.2324 23.6667 18.6057C22.3334 17.819 20.5201 17.4457 19.3467 17.4457C17.3201 17.4457 13.3467 18.5257 13.3467 21.0457V24.7524C10.3201 24.579 7.62675 23.139 5.80008 20.939Z" fill="#F4F4F4"/>
</svg>
