<svg width="109" height="37" viewBox="0 0 109 37" fill="none" xmlns="http://www.w3.org/2000/svg">
<path opacity="0.5" fill-rule="evenodd" clip-rule="evenodd" d="M92.6179 4.24139C92.6179 1.88562 94.5043 0 96.8627 0C99.2195 0 101.106 1.88562 101.106 4.24139C101.106 6.55184 99.2195 8.48435 96.8627 8.48435C94.504 8.48435 92.6179 6.55184 92.6179 4.24139ZM7.45045 16.7327V4.2414H0V35.7274H7.45076V26.4418L10.6564 22.9066L19.8991 35.7274H28.5293L15.4667 17.723L27.915 4.2414H18.8142L7.45045 16.7327ZM45.4021 20.2208V21.1161C36.3485 21.7754 29.8876 23.7076 29.8873 29.411C29.8873 33.6536 33.5192 36.2923 37.9517 36.2923C41.2992 36.2923 44.0345 35.3504 45.7786 32.8993L46.6274 35.7268H53.2776C52.8056 33.7005 52.4757 29.6467 52.4757 26.5832V21.4453C52.4757 14.3748 48.75 11.6892 42.1014 11.6892C36.7251 11.6892 32.9525 14.045 31.3972 17.157L37.4331 19.3239C37.9035 17.4399 39.5072 16.5433 41.4888 16.5433C43.9876 16.5433 45.4021 17.534 45.4021 20.2208ZM37.291 28.8928C37.291 30.4017 38.7056 31.3908 40.5917 31.3908C43.422 31.3908 45.543 30.2129 45.543 25.923V25.3575C40.592 25.7824 37.291 26.4416 37.291 28.8928ZM57.1857 12.349V35.7269H64.3531V23.9434C64.3531 20.2206 66.2396 18.7117 69.7279 18.7117C70.389 18.7117 70.9079 18.7586 71.6613 18.8539V11.6897C68.0776 11.5009 65.5787 12.8676 64.1173 16.6388L62.8435 12.349H57.1857ZM100.549 21.1161V20.2208C100.549 17.534 99.1344 16.5433 96.6356 16.5433C94.6541 16.5433 93.0503 17.4399 92.58 19.3239L86.544 17.157C88.0993 14.045 91.8719 11.6892 97.2483 11.6892C103.897 11.6892 107.623 14.3748 107.623 21.4453V26.5832C107.623 29.6467 107.952 33.7005 108.424 35.7268H101.774L100.925 32.8993C99.1813 35.3504 96.4461 36.2923 93.0985 36.2923C88.666 36.2923 85.0341 33.6536 85.0341 29.411C85.0341 23.7076 91.4951 21.7754 100.549 21.1161ZM95.738 31.3908C93.8518 31.3908 92.4373 30.4017 92.4373 28.8928C92.4373 26.4416 95.7383 25.7824 100.689 25.3575V25.923C100.689 30.2129 98.5683 31.3908 95.738 31.3908ZM81.8904 4.2414V35.7274H74.723V4.2414H81.8904Z" fill="white"/>
</svg>
