<svg width="223" height="41" viewBox="0 0 223 41" fill="none" xmlns="http://www.w3.org/2000/svg">
<g opacity="0.5">
<path d="M15.8526 40.8655C13.4525 40.8655 11.2819 40.4799 9.33938 39.7087C7.39681 38.9375 5.72666 37.8526 4.32652 36.4525C2.92719 35.0539 1.85607 33.404 1.11397 31.5043C0.371053 29.6046 0 27.5407 0 25.3128C0 23.0849 0.392072 21.0356 1.17783 19.165C1.96278 17.2943 3.08483 15.6589 4.54156 14.2588C5.99828 12.8595 7.71774 11.7738 9.70477 11.0026C11.6894 10.2314 13.8526 9.84578 16.1954 9.84578C17.8518 9.84578 19.4152 10.06 20.8873 10.4885C22.3578 10.9169 23.6924 11.503 24.8929 12.2451C26.0925 12.9888 27.1055 13.8449 27.9341 14.8158L23.521 19.4859C22.8072 18.8004 22.0716 18.2296 21.3149 17.7721C20.5575 17.3162 19.7507 16.9516 18.8946 16.6799C18.0369 16.4083 17.1226 16.2725 16.1517 16.2725C14.8947 16.2725 13.7459 16.5013 12.7031 16.958C11.6595 17.4156 10.7468 18.051 9.96103 18.865C9.17527 19.6791 8.56817 20.6362 8.14053 21.7356C7.71208 22.8351 7.49785 24.0274 7.49785 25.3128C7.49785 26.5981 7.72582 27.7978 8.18337 28.9118C8.63931 30.0257 9.26824 30.9901 10.0685 31.8042C10.8672 32.6182 11.8179 33.2609 12.9173 33.7322C14.0167 34.2035 15.1954 34.4387 16.4516 34.4387C17.3368 34.4387 18.1727 34.2965 18.9585 34.0103C19.7434 33.7249 20.4217 33.3393 20.9932 32.8535C21.5647 32.3684 22.0223 31.7896 22.365 31.1187C22.707 30.4477 22.8784 29.7258 22.8784 28.9546V27.8406L23.8209 29.2974H15.5527V23.599H29.6479C29.7052 23.9135 29.7481 24.3427 29.7772 24.8843C29.8055 25.4276 29.8265 25.9555 29.8411 26.4696C29.8548 26.9837 29.8629 27.3693 29.8629 27.6264C29.8629 29.569 29.512 31.3474 28.8128 32.961C28.1127 34.5746 27.1346 35.9674 25.8775 37.138C24.6213 38.3093 23.1362 39.2236 21.4224 39.88C19.7086 40.5373 17.8518 40.8655 15.8526 40.8655Z" fill="white"/>
<path d="M35.9893 34.696L38.2609 29.2119H52.0561L54.2848 34.696H35.9893ZM30.3337 40.4373L42.2026 10.4458H48.3714L60.1546 40.4373H52.7845L47.1289 25.2273C46.9002 24.6275 46.6722 23.9848 46.4442 23.2993C46.2146 22.6138 45.9867 21.9072 45.7579 21.1781C45.5291 20.4497 45.3084 19.7367 45.0942 19.0358C44.88 18.3366 44.7005 17.6866 44.559 17.0868L45.8436 17.044C45.673 17.7586 45.4798 18.4578 45.2656 19.1433C45.0514 19.8289 44.8371 20.5079 44.6229 21.1781C44.4087 21.8499 44.1726 22.5216 43.9164 23.1926C43.6585 23.8636 43.416 24.5564 43.1872 25.2702L37.5317 40.4373H30.3337Z" fill="white"/>
<path d="M72.9637 40.8655C70.9929 40.8655 69.2144 40.6294 67.6291 40.1581C66.0439 39.6868 64.6373 39.0021 63.4101 38.1024C62.1814 37.2026 61.0812 36.1388 60.1111 34.91L64.5241 29.8972C65.9509 31.8115 67.3874 33.0968 68.8296 33.7532C70.2718 34.4113 71.7649 34.7387 73.3065 34.7387C74.0777 34.7387 74.7778 34.6392 75.4059 34.4387C76.034 34.2391 76.5199 33.9464 76.8626 33.5608C77.2054 33.1752 77.3768 32.6975 77.3768 32.1251C77.3768 31.6967 77.2701 31.3111 77.0558 30.9683C76.8416 30.6256 76.5482 30.3256 76.1779 30.0686C75.8061 29.8115 75.3639 29.5763 74.8489 29.362C74.3348 29.1478 73.7915 28.9619 73.2208 28.805C72.6493 28.6482 72.0648 28.5124 71.465 28.3976C69.8078 28.0274 68.3656 27.5698 67.1368 27.0266C65.9081 26.4841 64.8879 25.8205 64.0738 25.0347C63.2598 24.2489 62.6527 23.35 62.2525 22.3355C61.8524 21.3217 61.6527 20.1859 61.6527 18.9289C61.6527 17.587 61.9599 16.3517 62.5735 15.2232C63.1878 14.0947 64.0164 13.1238 65.0593 12.3098C66.1013 11.4957 67.3082 10.8676 68.6793 10.4246C70.0503 9.98159 71.4787 9.76009 72.9637 9.76009C74.9346 9.76009 76.6274 9.96785 78.0413 10.3817C79.4543 10.7956 80.6685 11.3882 81.6831 12.1594C82.6968 12.9306 83.5602 13.8595 84.2748 14.9443L79.7769 19.2717C79.1771 18.5296 78.5263 17.9152 77.827 17.4293C77.1262 16.9443 76.3841 16.5724 75.5991 16.3154C74.8125 16.0583 74.0066 15.9298 73.1788 15.9298C72.3211 15.9298 71.5854 16.0373 70.9719 16.2515C70.3567 16.4657 69.8797 16.7656 69.537 17.1512C69.1934 17.5368 69.022 18.0009 69.022 18.5433C69.022 19.0291 69.1651 19.443 69.4505 19.7858C69.7358 20.1286 70.1214 20.4366 70.6073 20.7066C71.0931 20.979 71.6501 21.207 72.2782 21.3929C72.9063 21.5788 73.5636 21.7292 74.2491 21.8423C75.8198 22.1568 77.241 22.5707 78.5126 23.0849C79.7834 23.599 80.8828 24.2279 81.8108 24.97C82.7396 25.7129 83.4543 26.5917 83.9539 27.6054C84.4534 28.6199 84.7032 29.7978 84.7032 31.1397C84.7032 33.2253 84.1964 34.9893 83.1826 36.4314C82.1681 37.8736 80.7833 38.9738 79.0267 39.7305C77.2701 40.4872 75.2491 40.8655 72.9637 40.8655Z" fill="white"/>
<path d="M97.728 40.4373L85.7314 10.4458H93.315L99.099 25.7415C99.4418 26.6275 99.7336 27.3987 99.977 28.0551C100.219 28.7123 100.435 29.3259 100.62 29.8974C100.806 30.4689 100.977 31.0478 101.135 31.6322C101.291 32.2183 101.469 32.8828 101.67 33.6249H100.342C100.57 32.654 100.798 31.7899 101.027 31.0332C101.255 30.2766 101.513 29.49 101.798 28.6767C102.084 27.8619 102.441 26.8837 102.869 25.7415L108.439 10.4458H115.894L103.812 40.4373H97.728Z" fill="white"/>
<path d="M121.442 10.4277H129.473V40.4377H121.442V10.4277Z" fill="white"/>
<path d="M147.516 40.8655C145.545 40.8655 143.767 40.6294 142.182 40.1581C140.596 39.6868 139.19 39.0021 137.963 38.1024C136.734 37.2026 135.634 36.1388 134.664 34.91L139.077 29.8972C140.503 31.8115 141.94 33.0968 143.382 33.7532C144.824 34.4113 146.317 34.7387 147.859 34.7387C148.63 34.7387 149.33 34.6392 149.958 34.4387C150.587 34.2391 151.072 33.9464 151.415 33.5608C151.758 33.1752 151.929 32.6975 151.929 32.1251C151.929 31.6967 151.823 31.3111 151.608 30.9683C151.394 30.6256 151.101 30.3256 150.73 30.0686C150.359 29.8115 149.916 29.5763 149.401 29.362C148.887 29.1478 148.344 28.9619 147.773 28.805C147.202 28.6482 146.617 28.5124 146.017 28.3976C144.36 28.0274 142.918 27.5698 141.689 27.0266C140.461 26.4841 139.44 25.8205 138.626 25.0347C137.812 24.2489 137.205 23.35 136.805 22.3355C136.405 21.3217 136.205 20.1859 136.205 18.9289C136.205 17.587 136.512 16.3517 137.126 15.2232C137.74 14.0947 138.569 13.1238 139.612 12.3098C140.654 11.4957 141.861 10.8676 143.232 10.4246C144.603 9.98159 146.031 9.76009 147.516 9.76009C149.487 9.76009 151.18 9.96785 152.594 10.3817C154.007 10.7956 155.221 11.3882 156.236 12.1594C157.249 12.9306 158.113 13.8595 158.827 14.9443L154.329 19.2717C153.73 18.5296 153.079 17.9152 152.38 17.4293C151.679 16.9443 150.937 16.5724 150.152 16.3154C149.365 16.0583 148.559 15.9298 147.731 15.9298C146.874 15.9298 146.138 16.0373 145.524 16.2515C144.909 16.4657 144.432 16.7656 144.089 17.1512C143.746 17.5368 143.575 18.0009 143.575 18.5433C143.575 19.0291 143.718 19.443 144.003 19.7858C144.288 20.1286 144.674 20.4366 145.16 20.7066C145.646 20.979 146.203 21.207 146.831 21.3929C147.459 21.5788 148.116 21.7292 148.802 21.8423C150.372 22.1568 151.793 22.5707 153.065 23.0849C154.336 23.599 155.435 24.2279 156.363 24.97C157.292 25.7129 158.007 26.5917 158.506 27.6054C159.006 28.6199 159.256 29.7978 159.256 31.1397C159.256 33.2253 158.749 34.9893 157.735 36.4314C156.721 37.8736 155.336 38.9738 153.579 39.7305C151.823 40.4872 149.802 40.8655 147.516 40.8655Z" fill="white"/>
<path d="M177.507 34.0103C178.678 34.0103 179.756 33.7961 180.742 33.3676C181.727 32.9392 182.584 32.3329 183.313 31.5471C184.042 30.7614 184.605 29.8406 185.004 28.7832C185.404 27.7275 185.605 26.5698 185.605 25.3128C185.605 24.0565 185.404 22.8997 185.004 21.8424C184.605 20.7866 184.042 19.865 183.313 19.0793C182.584 18.2935 181.727 17.6864 180.742 17.258C179.756 16.8295 178.678 16.6153 177.507 16.6153C176.336 16.6153 175.258 16.8295 174.272 17.258C173.287 17.6864 172.422 18.2935 171.68 19.0793C170.937 19.865 170.373 20.7866 169.988 21.8424C169.602 22.8997 169.409 24.0565 169.409 25.3128C169.409 26.5698 169.602 27.7339 169.988 28.805C170.373 29.8762 170.937 30.7969 171.68 31.5681C172.422 32.3393 173.287 32.9392 174.272 33.3676C175.258 33.7961 176.336 34.0103 177.507 34.0103ZM177.55 40.8655C175.265 40.8655 173.179 40.4799 171.294 39.7087C169.409 38.9375 167.766 37.8526 166.368 36.4525C164.967 35.0539 163.883 33.4105 163.111 31.5253C162.339 29.6401 161.955 27.5698 161.955 25.3128C161.955 23.0566 162.339 20.9855 163.111 19.1003C163.883 17.2151 164.967 15.5733 166.368 14.1731C167.766 12.7738 169.409 11.6881 171.294 10.9169C173.179 10.1457 175.25 9.7601 177.507 9.7601C179.763 9.7601 181.835 10.1457 183.72 10.9169C185.605 11.6881 187.247 12.7738 188.647 14.1731C190.046 15.5733 191.125 17.2151 191.882 19.1003C192.639 20.9855 193.018 23.0566 193.018 25.3128C193.018 27.5407 192.639 29.6046 191.882 31.5043C191.125 33.404 190.046 35.0539 188.647 36.4525C187.247 37.8526 185.605 38.9375 183.72 39.7087C181.835 40.4799 179.778 40.8655 177.55 40.8655Z" fill="white"/>
<path d="M214.439 40.4373L206.813 26.8983L214.268 25.8272L222.751 40.4373H214.439ZM204.756 24.3276H210.669C211.411 24.3276 212.061 24.1635 212.618 23.8345C213.175 23.5071 213.604 23.0422 213.904 22.4424C214.204 21.8426 214.354 21.1571 214.354 20.3859C214.354 19.6146 214.183 18.9364 213.84 18.3511C213.496 17.7658 213.004 17.3156 212.361 17.0011C211.719 16.6874 210.94 16.5298 210.026 16.5298H204.756V24.3276ZM197.816 40.4373V10.4458H211.312C213.225 10.4458 214.96 10.8605 216.517 11.6883C218.073 12.5169 219.295 13.6527 220.181 15.0941C221.065 16.5371 221.508 18.1725 221.508 20.0002C221.508 21.8854 221.065 23.5782 220.181 25.0778C219.295 26.5765 218.082 27.7552 216.539 28.6121C214.996 29.469 213.254 29.8974 211.312 29.8974H204.756V40.4373H197.816Z" fill="white"/>
<path d="M129.876 -0.000283846H121.009C120.309 -0.000283846 119.742 0.567209 119.742 1.26647C119.742 1.96573 120.309 2.53322 121.009 2.53322H124.176V5.15161H126.709V2.53322H129.876C130.576 2.53322 131.143 1.96573 131.143 1.26647C131.143 0.567209 130.576 -0.000283846 129.876 -0.000283846Z" fill="white"/>
<path d="M127.554 6.41791H123.332C122.283 6.41791 121.431 7.26996 121.431 8.31844V8.95142H129.455V8.31844C129.455 7.26996 128.602 6.41791 127.554 6.41791Z" fill="white"/>
</g>
</svg>
